<?xml version="1.0" encoding="utf-8"?>
<!-- Generator: Adobe Illustrator 23.0.5, SVG Export Plug-In . SVG Version: 6.00 Build 0)  -->
<svg version="1.1" id="Layer_1" xmlns="http://www.w3.org/2000/svg" xmlns:xlink="http://www.w3.org/1999/xlink" x="0px" y="0px"
	 viewBox="0 0 560 288" style="enable-background:new 0 0 560 288;" xml:space="preserve">
<style type="text/css">
	.st0{fill:url(#SVGID_1_);}
	.st1{fill:url(#SVGID_2_);}
	.st2{fill:url(#SVGID_3_);}
	.st3{fill:url(#SVGID_4_);}
	.st4{fill:url(#SVGID_5_);}
	.st5{fill:url(#SVGID_6_);}
	.st6{fill:url(#SVGID_7_);}
	.st7{fill:url(#SVGID_8_);}
	.st8{fill:url(#SVGID_9_);}
	.st9{fill:url(#SVGID_10_);}
	.st10{fill:url(#SVGID_11_);}
	.st11{fill:url(#SVGID_12_);}
	.st12{fill:url(#SVGID_13_);}
	.st13{fill-rule:evenodd;clip-rule:evenodd;fill:url(#SVGID_14_);}
	.st14{fill-rule:evenodd;clip-rule:evenodd;fill:url(#SVGID_15_);}
	.st15{fill-rule:evenodd;clip-rule:evenodd;fill:url(#SVGID_16_);}
	.st16{fill-rule:evenodd;clip-rule:evenodd;fill:url(#SVGID_17_);}
	.st17{fill:url(#SVGID_18_);}
	.st18{fill:url(#SVGID_19_);}
	.st19{fill:url(#SVGID_20_);}
	.st20{fill:url(#SVGID_21_);}
	.st21{fill:url(#SVGID_22_);}
	.st22{fill:url(#SVGID_23_);}
	.st23{fill:url(#SVGID_24_);}
	.st24{fill:url(#SVGID_25_);}
	.st25{fill:url(#SVGID_26_);}
	.st26{fill:url(#SVGID_27_);}
	.st27{fill:url(#SVGID_28_);}
	.st28{fill:url(#SVGID_29_);}
	.st29{fill:url(#SVGID_30_);}
	.st30{fill:url(#SVGID_31_);}
	.st31{fill:url(#SVGID_32_);}
	.st32{fill:url(#SVGID_33_);}
	.st33{fill:url(#SVGID_34_);}
	.st34{fill:url(#SVGID_35_);}
	.st35{fill:url(#SVGID_36_);}
	.st36{fill:url(#SVGID_37_);}
	.st37{fill:url(#SVGID_38_);}
	.st38{fill:url(#SVGID_39_);}
	.st39{fill:url(#SVGID_40_);}
</style>
<linearGradient id="SVGID_1_" gradientUnits="userSpaceOnUse" x1="124.1339" y1="20.7287" x2="198.3239" y2="20.7287" gradientTransform="matrix(1 0 0 -1 -115.9994 128)">
	<stop  offset="0" style="stop-color:#F9C924"/>
	<stop  offset="0.3198" style="stop-color:#E4AF18"/>
	<stop  offset="0.6802" style="stop-color:#FFF98C"/>
	<stop  offset="1" style="stop-color:#FFD440"/>
</linearGradient>
<path class="st0" d="M31.51,135.63c-0.24-0.24-0.24-0.71,0-1.67c0-0.71,0.24-1.67,0.24-2.86c0-1.19,0-2.38,0-3.57
	c0-1.43-0.48-2.62-0.95-4.05c-0.48-1.43-1.43-3.57-2.62-6.2c-1.19-2.86-2.62-5.96-4.06-9.53c-1.43-3.57-3.1-7.15-4.53-10.96
	c-1.67-3.81-3.1-7.15-4.29-10.25c-0.48-1.43-0.95-2.38-1.43-3.1c-0.48-0.95-0.95-1.43-1.43-1.91c-0.24-0.48-0.95-0.71-1.43-0.95
	c-0.48-0.24-1.19-0.48-2.15-0.48c-0.24,0-0.48,0-0.48-0.24c-0.24,0-0.24-0.24-0.24-0.48s0.24-0.48,0.24-0.71
	c0.24-0.24,0.24-0.48,0.24-0.71c0.24-0.24,0.72-0.48,1.67-0.48c1.43,0,2.86,0.24,4.29,0.71s3.1,0.95,4.53,1.43
	c1.43,0.48,2.86,0.95,4.29,1.43c1.43,0.48,2.86,0.71,4.06,0.71c0.24,0,0.48,0.24,0.72,0.71c0.24,0.48,0.24,0.95,0.24,1.19
	s-0.24,0.48-0.48,0.48c-1.67,0.24-2.62,0.48-3.1,0.72c-0.24,0.24-0.48,0.71-0.24,1.19c0,0.24,0.24,0.71,0.24,1.43
	c0.24,0.48,0.24,1.19,0.48,1.91c0.95,2.14,1.67,4.53,2.86,7.15c1.19,2.62,1.91,5,3.1,7.39c0.95,2.38,1.91,5,3.1,7.39
	c0.95,2.38,1.91,4.53,2.86,6.67c0,0.24,0.24,0.24,0.48,0.24c0.24,0,0.24,0,0.48,0c0.48-0.95,0.95-2.14,1.43-4.05
	c0.72-1.91,1.19-3.81,1.91-5.96c0.72-2.14,1.43-4.29,2.15-6.43c0.72-2.14,1.19-3.81,1.91-5c0-0.24,0.24-0.71,0.24-0.95
	s0-0.71-0.24-0.95c-0.48-0.48-0.72-0.95-1.19-1.19c-0.24-0.24-0.72-0.71-0.95-0.95c-0.24-0.24-0.48-0.71-0.48-1.19s0-0.95,0-1.67
	l7.63,2.14c1.67,0.48,2.86,1.43,3.82,2.62c0.95,1.43,1.67,3.1,2.39,5c0.72,2.14,1.43,4.53,2.15,7.15c0.72,2.62,1.91,5.72,3.1,9.06
	c0,0.24,0.24,0.24,0.24,0.24c0.24,0,0.24-0.24,0.24-0.24l1.43-3.1c0.72-1.43,1.43-3.34,2.15-5.24c0.72-1.91,1.67-4.05,2.39-6.2
	c0.72-2.14,1.67-4.29,2.39-6.2c0.72-1.91,1.19-3.81,1.67-5.24c0.48-1.67,0.72-2.86,0.72-3.57c0-0.48,0-0.95-0.24-1.19
	c-0.24-0.48-0.72-0.71-1.19-0.71c-0.72-0.24-1.43-0.24-1.91-0.24c-0.48,0-0.95-0.24-1.43-0.24c-0.24,0-0.24-0.24-0.24-0.48
	c0-0.48,0.24-0.95,0.24-1.19c0-0.48,0.24-0.71,0.72-0.71c0.24,0,0.48,0,1.19,0.24c0.48,0,1.19,0.24,1.91,0.24
	c0.72,0.24,1.43,0.24,2.15,0.24c0.72,0,1.43,0.24,1.91,0.24c1.91,0,3.34,0,4.29,0c0.95,0,1.43,0,1.67,0.24
	c0.24,0.24,0.24,0.48-0.24,0.71c-0.24,0.48-0.95,0.95-1.67,1.67c-0.72,0.71-1.43,1.67-2.39,2.86c-0.95,1.19-1.67,2.62-2.39,4.29
	c-0.48,1.19-1.19,2.62-2.15,4.77c-0.95,2.14-1.91,4.53-2.86,7.15c-0.95,2.62-2.15,5.24-3.34,8.1c-1.19,2.86-2.15,5.48-3.34,8.1
	c-0.48,0.95-0.95,1.91-1.43,3.34c-0.72,1.19-1.19,2.62-1.91,4.29c-0.24,0.48-0.48,0.71-0.72,1.19c-0.24,0.24-0.48,0.48-0.72,0.48
	c-0.48,0-0.95-0.24-1.19-0.71c-0.24-0.48-0.48-0.95-0.72-1.43c-0.24-0.71-0.48-1.43-0.95-2.38c-0.24-0.95-0.72-2.38-1.43-4.05
	c-0.24-0.95-0.72-2.14-1.43-3.81c-0.48-1.67-1.19-3.34-1.91-5.24c-0.72-1.91-1.43-3.81-2.15-5.72c-0.72-1.91-1.43-3.81-2.15-5.48
	L35.81,134.2c0,0.24-0.24,0.48-0.24,0.71l-0.48,0.95c-0.24,0.24-0.48,0.48-0.48,0.71c-0.24,0.24-0.24,0.24-0.24,0.24
	c-0.24,0-0.48,0.24-0.72,0.24h-0.95C31.99,136.35,31.75,136.11,31.51,135.63z"/>
<linearGradient id="SVGID_2_" gradientUnits="userSpaceOnUse" x1="197.6752" y1="22.3968" x2="230.1925" y2="22.3968" gradientTransform="matrix(1 0 0 -1 -115.9994 128)">
	<stop  offset="0" style="stop-color:#F9C924"/>
	<stop  offset="0.3198" style="stop-color:#E4AF18"/>
	<stop  offset="0.6802" style="stop-color:#FFF98C"/>
	<stop  offset="1" style="stop-color:#FFD440"/>
</linearGradient>
<path class="st1" d="M81.61,91.3c0-0.48,0.24-0.95,0.48-1.19c0.24-0.24,0.72-0.48,1.19-0.48h29.58c0.48,0,0.72,0.24,0.95,0.48
	c0.24,0.24,0.48,0.71,0.48,1.19c0,0.48-0.24,0.95-0.48,1.19c-0.24,0.24-0.72,0.48-0.95,0.48H83.28c-0.48,0-0.72-0.24-1.19-0.48
	C81.85,92.02,81.61,91.78,81.61,91.3z M87.81,104.17c0.48-0.95,1.19-1.67,1.91-2.14c0.72-0.48,1.19-0.95,1.91-1.43
	c0.72-0.48,1.43-0.71,2.15-1.19c0.72-0.24,1.67-0.71,2.39-1.19c0.24-0.24,0.72-0.48,0.95-0.95c0.24-0.48,0.48-0.71,0.48-1.19
	c0.24-0.48,0.24-0.71,0.24-0.95s0.24-0.48,0.24-0.48s0.24,0.24,0.24,0.48s0.24,0.48,0.24,0.95c0.24,0.48,0.48,0.71,0.72,1.19
	c0.24,0.48,0.95,0.71,1.67,1.19c1.19,0.48,2.15,0.95,3.1,1.19c0.95,0.24,1.91,0.95,2.39,1.67c0.72,0.71,1.19,1.43,1.19,2.14
	c0.24,0.71,0.24,1.19,0.24,1.91c0.48,1.19,0.48,4.77,0.24,10.96c-0.24,6.2,0,10.49,0.48,13.11c0.48,2.62,0.95,3.81,1.19,3.81
	c0.48,0,1.19,0,1.67-0.24c0.48-0.24,1.19-0.48,1.43-0.48c0.24,0,0.24,0,0.48,0.24c0.24,0.24,0.24,0.48,0.24,0.71l0.48,1.43
	c0,0.24-0.24,0.48-0.48,0.71c-0.24,0.24-0.72,0.24-1.43,0.48c-0.72,0.24-1.43,0.48-2.15,0.71c-0.72,0.24-1.67,0.48-2.62,0.48
	c-0.95,0-1.67,0.24-2.39,0.24c-0.24,0-0.72-0.48-1.19-1.67c-0.48-1.19-0.72-2.38-1.19-3.81c-0.48-1.43-0.72-2.86-0.95-4.29
	c-0.24-1.43-0.48-2.62-0.72-3.34c-0.72,0.48-1.67,0.95-2.62,1.19c-0.95,0.48-1.91,0.95-2.62,1.19c-0.95,0.48-1.67,0.71-2.39,0.95
	c-0.72,0.24-1.19,0.24-1.43,0.24c-1.43,0-2.86-0.71-4.29-1.91c-0.48-0.48-0.72-0.95-1.19-1.91c-0.48-0.95-0.72-2.15-0.72-3.57
	c0-0.48,0.24-0.95,0.48-1.43c0.48-0.48,0.72-1.19,1.43-1.67c0.48-0.48,1.19-0.95,1.67-1.43c0.72-0.48,1.19-0.71,1.67-1.19
	c1.67-0.95,3.34-1.67,4.77-2.62c1.67-0.95,3.34-1.43,5.25-1.67c0-0.48,0-0.71,0-0.71c0-0.24,0-0.24,0-0.48v-1.19
	c0-1.19,0-2.14-0.24-3.1c-0.24-0.71-0.48-1.43-0.72-1.67c-0.24-0.24-0.72-0.71-1.43-0.95c-0.72-0.24-1.67-0.48-2.39-0.48
	c-0.24,0.24-0.72,0.48-0.95,0.71c-0.24,0.24-0.72,0.48-1.19,0.71c0,0.24,0,0.71,0,1.19c0,0.48,0,0.95,0,1.67
	c0,0.48-0.24,0.71-0.48,0.95l-4.53,1.43c-0.48,0.24-0.72,0.24-0.95,0.24c-0.24,0-0.48,0-0.48,0c-0.72,0-1.19-0.24-1.19-0.48
	s0-0.71,0.24-1.19c0.24-0.48,0.48-0.95,0.95-1.67C87.34,104.89,87.57,104.65,87.81,104.17z M98.31,74.38c0.48,0,0.72,0.24,0.95,0.95
	c0,0,0.24,0.24,0.48,0.71c0.24,0.48,0.48,0.71,0.95,1.19c0.24,0.24,0.48,0.48,0.72,0.95c0.24,0.24,0.48,0.48,0.48,0.48
	c0.48,0.24,0.72,0.24,0.72,0.48c0.24,0.24,0.24,0.71,0.24,1.19c0,0.24-0.24,0.48-0.48,0.48c-0.24,0-0.48,0.24-0.72,0.48
	c-0.24,0.24-0.72,0.71-0.95,0.95c-0.24,0.48-0.72,0.71-0.95,1.19c-0.24,0.48-0.48,0.71-0.72,1.19c0,0.48-0.48,0.48-1.19,0.48
	c-0.48,0-0.95-0.24-1.43-0.71c-0.24-0.48-0.95-1.19-1.67-1.91c0,0-0.24-0.48-0.48-0.95c-0.24-0.48-0.72-0.95-1.19-1.19
	c-0.72-0.24-0.95-0.71-0.95-1.19c0-0.24,0-0.48,0.24-0.71c0.24-0.24,0.48-0.48,0.72-0.48c0.24,0,0.48-0.24,0.95-0.48
	c0.48-0.24,0.72-0.71,1.19-1.19c0.48-0.48,0.72-0.71,1.19-1.19c0.24-0.24,0.48-0.48,0.48-0.71c0.24-0.48,0.48-0.71,0.48-0.71h0.95
	V74.38z M96.16,123.95c0.24,0,0.72,0,1.19-0.24c0.48-0.24,1.19-0.48,2.15-0.71c0.72-0.48,0.95-0.95,1.19-1.43c0-0.24,0-0.48,0-0.95
	s0-0.95,0-1.43s0-0.95,0-1.43v-1.19c0-0.71,0-1.19-0.24-1.19c-0.95,0.24-1.43,0.24-1.91,0.48c-0.48,0.24-0.72,0.24-0.95,0.48
	c-0.24,0.24-0.48,0.48-0.72,0.48c-0.24,0.24-0.48,0.48-0.72,0.71c-0.24,0.24-0.48,0.48-0.72,0.95c-0.24,0.24-0.24,0.71-0.24,1.43
	c0,0.48,0,1.19-0.24,1.67c0,0.48-0.24,0.95-0.24,1.43c0,0.48,0,0.71,0.24,0.95C95.45,123.72,95.69,123.95,96.16,123.95z"/>
<linearGradient id="SVGID_3_" gradientUnits="userSpaceOnUse" x1="227.0799" y1="26.5674" x2="249.2201" y2="26.5674" gradientTransform="matrix(1 0 0 -1 -115.9994 128)">
	<stop  offset="0" style="stop-color:#F9C924"/>
	<stop  offset="0.3198" style="stop-color:#E4AF18"/>
	<stop  offset="0.6802" style="stop-color:#FFF98C"/>
	<stop  offset="1" style="stop-color:#FFD440"/>
</linearGradient>
<path class="st2" d="M111.19,91.3c0-0.48,0-0.95,0.24-1.19c0.24-0.24,0.48-0.48,0.72-0.48h6.2v-2.86c0-2.38,0-4.77,0-6.67
	c0-1.91,0-3.34,0-3.81s0-1.19-0.24-1.67c0-0.71-0.24-1.19-0.48-1.67c-0.24-0.48-0.72-0.95-1.19-1.43c-0.48-0.48-1.19-0.71-1.91-0.71
	c-0.24,0-0.24-0.24-0.24-0.24c0-0.24,0-0.71,0.24-1.19c0-0.24,0.24-0.48,0.72-0.71c0.48-0.48,1.19-0.48,1.91-0.48
	c0.72,0,1.67,0.24,2.39,0.71c0.95,0.24,1.91,0.48,2.86,0.95c0.95,0.24,1.91,0.48,2.86,0.71h0.24c0,0,0,0,0.24,0
	c0.24,0,0.24,0.24,0.24,0.48c0,1.43-0.24,3.57-0.24,5.96c0,2.38-0.24,5.24-0.24,8.1c0,1.43,0,2.86-0.24,4.53h6.92
	c0.24,0,0.48,0.24,0.72,0.48c0.24,0.24,0.24,0.71,0.24,1.19c0,0.95-0.24,1.67-0.95,1.67h-6.92v1.67c0,3.34,0,6.67,0,9.77
	c0,3.34,0,6.43,0,9.29c0,3.1,0,5.48,0,7.86c0,3.57,0,6.2-0.24,7.86c-0.24,1.67-0.48,2.86-1.19,3.57c-0.72,0.71-1.67,0.95-3.34,1.19
	c-1.43,0-3.58,0.24-6.2,0.48c-0.24,0-0.24,0-0.24-0.24v-0.95c0-0.48,0-0.71,0.24-0.95c0.24,0,0.48-0.24,0.72-0.24
	c0.24-0.24,0.48-0.24,0.72-0.24c0.72-0.24,1.19-0.48,1.43-0.95c0.24-0.24,0.48-0.71,0.48-1.43c0-1.43,0.24-3.34,0.24-5.72
	c0-2.38,0.24-5,0.24-7.63s0-5.24,0-8.1c0-2.62,0-5,0-6.91v-8.58h-6.2c-0.24,0-0.48-0.24-0.72-0.48
	C111.19,92.02,111.19,91.78,111.19,91.3z"/>
<linearGradient id="SVGID_4_" gradientUnits="userSpaceOnUse" x1="245.2003" y1="25.7334" x2="267.0588" y2="25.7334" gradientTransform="matrix(1 0 0 -1 -115.9994 128)">
	<stop  offset="0" style="stop-color:#F9C924"/>
	<stop  offset="0.3198" style="stop-color:#E4AF18"/>
	<stop  offset="0.6802" style="stop-color:#FFF98C"/>
	<stop  offset="1" style="stop-color:#FFD440"/>
</linearGradient>
<path class="st3" d="M129.09,91.3c0-0.48,0-0.95,0.24-1.19c0.48-0.24,0.72-0.48,0.95-0.48h19.8c0.24,0,0.48,0.24,0.72,0.48
	c0.24,0.24,0.24,0.71,0.24,1.19c0,0.95-0.24,1.67-0.95,1.67h-19.8c-0.24,0-0.48-0.24-0.72-0.48
	C129.32,92.02,129.09,91.78,129.09,91.3z M136.72,105.13c0,0,0-0.24,0-0.48c0-0.24-0.24-0.48-0.48-0.71
	c-0.24-0.24-0.48-0.71-0.95-0.95c-0.48-0.24-0.95-0.48-1.91-0.71c-0.24,0-0.24-0.24-0.24-0.95c0.24-0.48,0.48-0.95,0.48-0.95
	c0-0.24,0.24-0.24,0.48-0.24c0.72-0.24,1.43-0.24,2.15-0.48c0.72-0.24,1.67-0.24,2.39-0.24c0.95,0,1.67-0.24,2.62-0.24
	c0.95,0,1.67-0.24,2.39-0.48h0.24h0.24c0.24,0,0.24,0.24,0.24,0.71c0,1.19,0,2.62-0.24,4.29c0,1.67,0,3.57,0,5.24v8.82
	c0,2.14-0.24,3.81-0.48,5.24c-0.24,1.43-0.72,2.38-0.95,3.1c-0.48,0.71-0.95,1.43-1.43,1.67c-0.48,0.48-0.95,0.71-1.43,0.95
	c-0.48,0.48-1.19,0.71-1.91,0.95c-0.72,0.24-1.19,0.48-1.91,0.48c-0.72,0-1.19,0.24-1.67,0.24s-0.72,0-0.72,0
	c-0.24,0-0.48,0-0.48-0.24c0-0.24-0.24-0.48-0.24-0.71v-0.95c0-0.24,0.24-0.24,0.48-0.24c1.19-0.24,1.91-0.71,2.39-1.43
	c0.48-0.71,0.72-1.43,0.95-2.38c0-0.24,0-0.95,0.24-1.67c0-0.95,0-1.91,0.24-2.86c0-1.19,0-2.38,0-3.57c0-1.19,0-2.38,0-3.57
	L136.72,105.13z M140.78,74.38c0.48,0,0.72,0.24,0.95,0.95c0,0,0.24,0.24,0.48,0.71c0.24,0.48,0.48,0.71,0.95,1.19
	c0.24,0.48,0.72,0.71,0.95,0.95c0.24,0.24,0.48,0.48,0.48,0.48c0.48,0.24,0.72,0.24,0.72,0.48c0.24,0.24,0.24,0.71,0.24,1.19
	c0,0.24-0.24,0.48-0.48,0.48c-0.24,0-0.48,0.24-0.72,0.48c-0.24,0.24-0.72,0.71-0.95,0.95c-0.24,0.48-0.72,0.71-0.95,1.19
	c-0.24,0.48-0.48,0.71-0.72,1.19c0,0.48-0.48,0.48-1.19,0.48c-0.48,0-0.95-0.24-1.43-0.71c-0.24-0.48-0.95-1.19-1.67-1.91
	c0,0-0.24-0.48-0.48-0.95c-0.24-0.48-0.72-0.95-1.19-1.19c-0.95,0.24-1.19-0.24-1.19-0.71c0-0.24,0-0.48,0.24-0.71
	c0.24-0.24,0.48-0.48,0.72-0.48c0.24,0,0.48-0.24,0.95-0.48c0.48-0.24,0.72-0.71,1.19-1.19c0.48-0.48,0.72-0.71,1.19-1.19
	c0.24-0.24,0.48-0.48,0.48-0.71c0.24-0.48,0.48-0.71,0.48-0.71h0.95V74.38z"/>
<linearGradient id="SVGID_5_" gradientUnits="userSpaceOnUse" x1="263.6927" y1="14.8899" x2="323.5708" y2="14.8899" gradientTransform="matrix(1 0 0 -1 -115.9994 128)">
	<stop  offset="0" style="stop-color:#F9C924"/>
	<stop  offset="0.3198" style="stop-color:#E4AF18"/>
	<stop  offset="0.6802" style="stop-color:#FFF98C"/>
	<stop  offset="1" style="stop-color:#FFD440"/>
</linearGradient>
<path class="st4" d="M147.69,91.3c0-0.48,0.24-0.95,0.95-1.19c0.48-0.24,1.19-0.48,1.91-0.48h54.39c0.72,0,1.43,0.24,1.91,0.48
	s0.71,0.71,0.71,1.19c0,0.48-0.24,0.95-0.71,1.19s-1.19,0.48-1.91,0.48h-54.39c-0.72,0-1.43-0.24-1.91-0.48
	C147.93,92.02,147.69,91.78,147.69,91.3z M178.71,130.63h-3.58c-0.96,0-1.67,0-2.15,0c-0.71,0-1.19,0-1.91,0
	c-0.48,0-1.19,0-2.15,0.24c-0.24,0-0.24,0-0.24-0.24c0-0.24,0-0.48,0-0.71c0-0.24,0-0.71,0-0.71s0-0.24,0.24-0.48
	c1.19-0.48,1.91-0.95,2.15-1.19c0.24-0.24,0.48-0.48,0.48-0.95c0.24-1.43,0.48-3.57,0.72-6.67c0.24-3.1,0.48-5.72,0.48-8.34
	c0-1.67,0-3.1-0.24-3.81c-0.24-0.71-0.48-1.43-0.72-1.91c-0.48-0.48-0.95-0.71-1.67-0.95c-0.72-0.24-1.43-0.48-2.39-0.48
	c-0.72,0-1.67,0.24-2.39,0.48c-0.72,0.48-1.43,1.19-1.91,1.67l-1.91,1.91c0,0.48,0,0.95,0,1.67c0,0.71,0,1.19,0,1.91v4.05
	c0,1.91,0,3.81,0,5.48c0,1.67-0.24,3.1-0.95,4.05c-0.72,1.19-1.43,1.67-2.15,1.67c-3.82,0.24-6.2,0.48-6.92,0.72
	c-0.24,0-0.24-0.48-0.24-0.95c0-0.48,0-0.95,0-1.19c0.24,0,0.72-0.24,0.95-0.48c0.48-0.24,0.72-0.48,0.95-0.71
	c0.48-0.24,0.72-0.71,0.95-1.19c0-0.71,0.24-1.91,0.24-3.57s0-3.81,0-6.2c0-1.91,0-3.34,0-4.29s0-1.67,0-1.91
	c0-0.24,0-0.48-0.24-0.95c0-0.48-0.24-0.95-0.24-1.19c0-0.48-0.24-0.71-0.48-1.19c-0.24-0.24-0.48-0.48-0.95-0.71
	c-0.48,0-0.72-0.24-0.95-0.24c-0.24,0-0.24-0.24-0.48-0.48c0,0-0.24-0.24-0.24-0.71c0-0.24,0-0.48,0-0.71
	c1.19-0.71,2.15-1.19,3.34-1.43c1.19-0.24,2.39-0.48,3.34-0.48c0.95,0,1.91,0.24,2.62,0.48c0.72,0.24,0.95,0.48,0.95,0.71v1.19
	c0.95,0,1.91-0.24,2.86-0.71c0.95-0.48,1.91-1.19,3.34-1.91c0.24-0.24,0.72-0.48,0.95-0.95c0.24-0.48,0.48-0.71,0.48-1.19
	c0.24-0.48,0.24-0.71,0.24-0.95s0.24-0.48,0.24-0.48s0.24,0.24,0.24,0.48s0.24,0.48,0.24,0.95c0.24,0.48,0.48,0.71,0.72,1.19
	s0.71,0.71,1.43,1.19c1.43,0,2.62,0.48,3.58,1.19c0.95,0.71,1.91,1.67,2.62,2.86c0.48-0.71,0.95-1.19,1.43-1.91
	c0.48-0.48,0.96-0.95,1.43-1.19c0.48-0.24,1.19-0.71,1.67-0.95c0.48-0.24,1.19-0.71,1.91-1.19c0.24-0.24,0.72-0.48,0.95-0.95
	c0.24-0.48,0.48-0.71,0.48-1.19c0.24-0.48,0.24-0.71,0.24-0.95s0.24-0.48,0.24-0.48s0.24,0.24,0.24,0.48s0.24,0.48,0.24,0.95
	c0.24,0.48,0.48,0.71,0.71,1.19c0.24,0.48,0.95,0.71,1.67,1.19c0.48,0.24,1.19,0.48,1.67,0.71c0.48,0.24,0.95,0.48,1.67,0.71
	c0.95,0.24,1.67,0.71,2.15,1.19c0.24,0.24,0.48,0.71,0.95,0.95c0.24,0.48,0.71,0.95,0.95,1.67s0.48,1.43,0.72,2.62
	c0.24,0.95,0.24,2.38,0.24,4.05c0,0.95,0,1.91,0,3.34c0,1.43,0,2.62,0,4.05c0,1.43,0,2.62,0,4.05c0,1.19-0.24,2.14-0.24,2.86
	c-0.48,2.62-1.19,4.53-1.91,6.2c-0.71,1.43-1.43,2.62-2.38,3.34c-0.96,0.71-1.91,1.43-2.86,1.67c-0.95,0.24-2.15,0.48-3.34,0.71
	h-0.24c-0.24,0-0.24,0-0.24-0.24c0-0.24,0-0.48-0.24-0.71c0-0.24,0-0.48-0.24-0.71c0-0.24,0-0.48,0.24-0.71
	c0.72-0.24,1.43-0.95,2.15-2.14c0.71-1.19,1.43-3.1,1.91-5.48c0.24-1.19,0.48-2.38,0.48-3.57c0-1.19,0-2.38,0-3.57
	c0-1.19,0-2.14,0-3.1c0-0.95,0-1.67,0-1.91c0-2.86-0.24-4.77-0.48-5.96c-0.24-1.19-0.71-2.14-1.19-2.62
	c-0.48-0.48-0.95-0.95-1.67-1.19c-0.48-0.24-1.19-0.24-1.91-0.24c-0.71,0-1.67,0.24-2.62,0.48c-0.95,0.24-1.91,0.71-2.62,1.19
	l-0.72,0.71c0,0.24-0.24,0.48-0.24,0.95c0,0.95,0,2.38,0,4.29c0,1.67,0,4.05,0,6.43c0,2.62-0.24,4.77-0.48,6.43
	c-0.24,1.67-0.24,2.86-0.24,3.81L178.71,130.63z"/>
<linearGradient id="SVGID_6_" gradientUnits="userSpaceOnUse" x1="316.5551" y1="22.1586" x2="349.0728" y2="22.1586" gradientTransform="matrix(1 0 0 -1 -115.9994 128)">
	<stop  offset="0" style="stop-color:#F9C924"/>
	<stop  offset="0.3198" style="stop-color:#E4AF18"/>
	<stop  offset="0.6802" style="stop-color:#FFF98C"/>
	<stop  offset="1" style="stop-color:#FFD440"/>
</linearGradient>
<path class="st5" d="M200.65,91.3c0-0.48,0.24-0.95,0.48-1.19c0.24-0.24,0.48-0.48,0.96-0.48h29.58c0.48,0,0.71,0.24,0.95,0.48
	c0.24,0.24,0.48,0.71,0.48,1.19c0,0.48-0.24,0.95-0.48,1.19c-0.24,0.24-0.71,0.48-0.95,0.48h-29.58c-0.48,0-0.72-0.24-1.19-0.48
	C200.65,92.02,200.65,91.78,200.65,91.3z M206.62,104.17c0.48-0.95,1.19-1.67,1.91-2.14c0.72-0.48,1.19-0.95,1.91-1.43
	c0.72-0.48,1.43-0.71,2.15-1.19c0.71-0.24,1.67-0.71,2.38-1.19c0.24-0.24,0.72-0.48,0.96-0.95c0.24-0.48,0.48-0.71,0.48-1.19
	c0.24-0.48,0.24-0.71,0.24-0.95s0.24-0.48,0.24-0.48s0.24,0.24,0.24,0.48s0.24,0.48,0.24,0.95c0.24,0.48,0.48,0.71,0.71,1.19
	c0.24,0.48,0.96,0.71,1.67,1.19c1.19,0.48,2.15,0.95,3.1,1.19c0.96,0.24,1.91,0.95,2.39,1.67c0.72,0.71,1.19,1.43,1.19,2.14
	c0.24,0.71,0.24,1.19,0.24,1.91c0.48,1.19,0.48,4.77,0.24,10.96c-0.24,6.2,0,10.49,0.48,13.11c0.48,2.62,0.95,3.81,1.19,3.81
	c0.48,0,1.19,0,1.67-0.24c0.48-0.24,1.19-0.48,1.43-0.48c0.24,0,0.24,0,0.48,0.24c0.24,0.24,0.24,0.48,0.24,0.71l0.48,1.43
	c0,0.24-0.24,0.48-0.48,0.71c-0.24,0.24-0.71,0.24-1.43,0.48c-0.71,0.24-1.43,0.48-2.15,0.71c-0.72,0.24-1.67,0.48-2.63,0.48
	c-0.95,0.24-1.67,0.24-2.38,0.24c-0.24,0-0.72-0.48-1.19-1.67c-0.48-1.19-0.72-2.38-1.19-3.81c-0.48-1.43-0.71-2.86-0.95-4.29
	c-0.24-1.43-0.48-2.62-0.72-3.34c-0.71,0.48-1.67,0.95-2.62,1.19c-0.95,0.24-1.91,0.95-2.62,1.19c-0.96,0.48-1.67,0.71-2.39,0.95
	c-0.71,0.24-1.19,0.24-1.43,0.24c-1.43,0-2.86-0.71-4.29-1.91c-0.48-0.48-0.72-0.95-1.19-1.91c-0.48-0.95-0.72-2.14-0.72-3.57
	c0-0.48,0.24-0.95,0.48-1.43c0.48-0.48,0.71-1.19,1.43-1.67c0.48-0.48,1.19-0.95,1.67-1.43c0.71-0.48,1.19-0.71,1.67-1.19
	c1.67-0.95,3.34-1.67,4.77-2.62c1.67-0.95,3.34-1.43,5.25-1.67c0-0.48,0-0.71,0-0.71c0-0.24,0-0.24,0-0.48v-1.19
	c0-1.19,0-2.14-0.24-3.1c-0.24-0.71-0.48-1.43-0.72-1.67c-0.24-0.24-0.72-0.71-1.43-0.95c-0.72-0.24-1.67-0.48-2.39-0.48
	c-0.24,0.24-0.71,0.48-0.95,0.71s-0.72,0.48-1.19,0.71c0,0.24,0,0.71,0,1.19c0,0.48,0,0.95,0,1.67c0,0.48-0.24,0.71-0.48,0.95
	l-4.53,1.43c-0.48,0.24-0.72,0.24-0.95,0.24c-0.24,0-0.48,0-0.48,0c-0.72,0-1.19-0.24-1.19-0.48s0-0.71,0.24-1.19
	c0.24-0.48,0.48-0.95,0.96-1.67C206.14,104.89,206.62,104.65,206.62,104.17z M217.35,74.38c0.48,0,0.71,0.24,0.95,0.95
	c0,0,0.24,0.24,0.48,0.71c0.24,0.48,0.48,0.71,0.95,1.19c0.24,0.48,0.72,0.71,0.96,0.95c0.24,0.24,0.48,0.48,0.48,0.48
	c0.48,0.24,0.71,0.24,0.71,0.48c0,0.24,0.24,0.71,0.24,1.19c0,0.24-0.24,0.48-0.48,0.48c-0.24,0-0.48,0.24-0.71,0.48
	c-0.24,0.24-0.72,0.71-0.96,0.95c-0.24,0.48-0.71,0.71-0.95,1.19c-0.24,0.48-0.48,0.71-0.72,1.19c0,0.48-0.48,0.48-1.19,0.48
	c-0.48,0-0.95-0.24-1.43-0.71c-0.24-0.48-0.95-1.19-1.67-1.91c0,0-0.24-0.48-0.48-0.95c-0.24-0.48-0.71-0.95-1.19-1.19
	c-0.95,0.24-1.43-0.24-1.43-0.71c0-0.24,0-0.48,0.24-0.71c0.24-0.24,0.48-0.48,0.71-0.48c0.24,0,0.48-0.24,0.96-0.48
	c0.48-0.24,0.71-0.71,1.19-1.19s0.72-0.71,1.19-1.19c0.24-0.24,0.48-0.48,0.48-0.71c0.24-0.48,0.48-0.71,0.48-0.71h1.19V74.38z
	 M215.21,123.95c0.24,0,0.72,0,1.19-0.24c0.48-0.24,1.19-0.48,2.15-0.71c0.72-0.48,0.96-0.95,1.19-1.43c0-0.24,0-0.48,0-0.95
	s0-0.95,0-1.43s0-0.95,0-1.43v-1.19c0-0.71,0-1.19-0.24-1.19c-0.96,0.24-1.43,0.24-1.91,0.48c-0.48,0.24-0.72,0.24-0.96,0.48
	c-0.24,0.24-0.48,0.48-0.71,0.48c-0.24,0.24-0.48,0.48-0.72,0.71c-0.24,0.24-0.48,0.48-0.71,0.95c-0.24,0.24-0.24,0.71-0.24,1.43
	c0,0.48,0,1.19-0.24,1.67c0,0.48-0.24,0.95-0.24,1.43s0,0.71,0.24,0.95C214.25,123.72,214.49,123.95,215.21,123.95z"/>
<linearGradient id="SVGID_7_" gradientUnits="userSpaceOnUse" x1="385.4437" y1="20.4903" x2="439.9507" y2="20.4903" gradientTransform="matrix(1 0 0 -1 -115.9994 128)">
	<stop  offset="0" style="stop-color:#F9C924"/>
	<stop  offset="0.3198" style="stop-color:#E4AF18"/>
	<stop  offset="0.6802" style="stop-color:#FFF98C"/>
	<stop  offset="1" style="stop-color:#FFD440"/>
</linearGradient>
<path class="st6" d="M274.85,95.83c0-2.14,0-4.05,0-5.48c0-1.43,0-2.38-0.24-3.1c0-0.71-0.24-1.43-0.48-1.67
	c-0.24-0.24-0.48-0.48-0.71-0.71c-0.48-0.24-0.96-0.71-1.67-1.19c-0.72-0.48-1.43-0.71-2.15-0.71c0-0.24,0-0.71,0.24-1.19
	c0.24-0.48,0.24-0.95,0.48-1.19c0.48-0.24,1.19-0.48,2.15-0.48c0.72,0,1.67,0.24,2.39,0.24c0.95,0.24,1.67,0.48,2.62,0.95
	c0.96,0.48,1.67,0.71,2.39,0.95c0.71,0.24,1.19,0.71,1.67,0.95c0.48,0.24,0.71,0.24,0.71,0.24s0.48,0,0.96,0.24
	c0.71,0.24,1.19,0.48,1.91,0.71c0.72,0.24,1.43,0.48,1.91,0.71c0.48,0.24,0.96,0.48,0.96,0.48s0,0.24,0,0.48s-0.24,0.48-0.24,0.71
	s-0.24,0.48-0.24,0.71s-0.24,0.48-0.24,0.48c-0.95-0.24-1.67-0.24-2.15-0.24c-0.48,0-0.95,0.24-1.43,0.48
	c-0.24,0-0.24,0.24-0.48,0.48c0,0.24-0.24,0.48-0.24,0.95s-0.24,1.19-0.24,1.91c0,0.95,0,1.91,0,3.34v6.91
	c0,0.71,0.24,0.95,0.48,0.95c0.24,0,0.71-0.24,1.43-0.71c0.71-0.48,1.43-0.95,2.15-1.67c0.96-0.71,2.15-1.91,3.34-3.1
	c1.19-1.19,2.63-2.62,3.82-4.05c1.43-1.43,2.62-2.86,3.82-4.29c1.19-1.43,2.39-2.62,3.34-3.81c0.48-0.48,0.72-0.71,0.72-1.19
	c0-0.24,0.24-0.71,0-0.95c0-0.24-0.24-0.48-0.24-0.71c0,0.24,0,0.24-0.24,0.24c-0.48,0-0.95-0.24-1.19-0.48s-0.72-0.48-1.43-0.48
	l0.71-2.14c0-0.24,0-0.48,0.24-0.48c1.91,0.24,3.58,0.24,5.25,0.48c1.67,0,3.1,0.24,4.29,0.24s2.15,0.24,2.86,0.48
	c0.72,0.24,0.96,0.71,0.96,1.19s-0.48,1.19-1.43,1.91c-0.96,0.71-2.39,1.91-4.3,3.1c-0.71,0.48-1.67,1.19-2.62,2.14
	c-0.95,0.95-1.91,2.14-3.1,3.34c-1.19,1.43-2.38,2.86-3.82,4.29c-1.43,1.67-3.1,3.34-5.01,5c-0.48,0.48-0.48,0.95,0,1.67
	c1.19,1.43,2.86,3.1,4.77,5.48c1.91,2.38,3.82,4.77,5.96,7.39c2.15,2.62,4.05,5,5.96,7.39c1.91,2.38,3.58,4.29,5.01,5.72
	c0.71,0.71,1.19,1.19,1.67,1.67c0.48,0.48,0.95,0.72,1.43,0.95c0.48,0.24,0.95,0.48,1.19,0.71c0.48,0.24,0.96,0.24,1.43,0.48
	l1.67,0.48c0.48,0.24,0.96,0.24,1.43,0.48c0.48,0.24,0.72,0.48,0.48,0.95l-0.71,1.67c-1.19,0-2.39,0-3.58,0c-1.19,0-2.39,0-3.82,0
	c-1.19,0-2.62-0.24-4.05-0.71c-1.43-0.48-2.86-1.19-4.3-2.14c-0.71-0.95-1.91-2.14-3.1-3.81c-1.19-1.67-2.62-3.34-4.05-5
	c-1.43-1.91-3.1-3.57-4.53-5.48c-1.67-1.91-3.1-3.81-4.29-5.24c-1.43-1.67-2.39-3.1-3.34-4.05c-0.96-1.19-1.43-1.91-1.67-2.14
	c-0.72-0.95-1.43-1.43-1.91-1.67s-0.96-0.24-1.19-0.24c-0.24,0-0.48,0.24-0.48,0.95v5.24c0,2.14,0,3.81,0,5c0,1.19,0,2.14,0,2.62
	c0,0.71,0,0.95,0,1.19c0,0.24,0,0.48,0,0.48c0,0.95-0.24,1.67-0.72,2.62c-0.48,0.95-0.95,1.67-1.43,2.38
	c-0.48,0.71-1.19,1.19-1.67,1.67c-0.48,0.48-0.95,0.71-1.19,0.95c-0.95,0.48-1.67,0.71-2.62,1.19c-0.96,0.48-1.67,0.71-2.39,0.95
	c-0.71,0.24-1.43,0.48-1.91,0.71c-0.48,0.24-0.95,0.24-1.19,0.24c0,0,0-0.24,0-0.48v-0.71c0-0.24,0-0.48,0-0.71
	c0-0.24,0-0.24,0.24-0.48c0.24,0,0.48-0.24,0.72-0.24c0.24-0.24,0.48-0.48,0.71-0.71c0.24-0.24,0.48-0.48,0.72-0.71
	c0.24-0.24,0.48-0.48,0.71-0.48c0.72-0.71,1.43-1.91,1.67-3.81c0.24-1.91,0.48-4.77,0.48-8.82V95.83z"/>
<linearGradient id="SVGID_8_" gradientUnits="userSpaceOnUse" x1="432.2638" y1="25.9716" x2="454.1225" y2="25.9716" gradientTransform="matrix(1 0 0 -1 -115.9994 128)">
	<stop  offset="0" style="stop-color:#F9C924"/>
	<stop  offset="0.3198" style="stop-color:#E4AF18"/>
	<stop  offset="0.6802" style="stop-color:#FFF98C"/>
	<stop  offset="1" style="stop-color:#FFD440"/>
</linearGradient>
<path class="st7" d="M316.36,91.3c0-0.48,0-0.95,0.24-1.19c0.24-0.24,0.48-0.48,0.71-0.48h19.8c0.24,0,0.48,0.24,0.71,0.48
	s0.24,0.71,0.24,1.19c0,0.95-0.24,1.67-0.95,1.67h-19.8c-0.24,0-0.48-0.24-0.71-0.48C316.36,92.02,316.36,91.78,316.36,91.3z
	 M323.75,105.13c0,0,0-0.24,0-0.48c0-0.24-0.24-0.48-0.48-0.71c-0.24-0.24-0.48-0.71-0.95-0.95c-0.48-0.24-0.95-0.48-1.91-0.71
	c-0.24,0-0.24-0.24-0.24-0.95c0.24-0.48,0.48-0.95,0.48-0.95c0-0.24,0.24-0.24,0.48-0.24c0.71-0.24,1.43-0.24,2.15-0.48
	c0.72,0,1.67-0.24,2.39-0.24c0.95,0,1.67-0.24,2.62-0.24c0.96,0,1.67-0.24,2.39-0.48h0.24h0.24c0.24,0,0.24,0.24,0.24,0.71
	c0,1.19,0,2.62-0.24,4.29c0,1.67,0,3.57,0,5.24v8.82c0,2.14-0.24,3.81-0.48,5.24c-0.24,1.43-0.72,2.38-0.96,3.1
	c-0.48,0.71-0.95,1.43-1.43,1.67c-0.48,0.48-0.95,0.71-1.43,0.95c-0.48,0.48-1.19,0.71-1.91,0.95c-0.71,0.24-1.19,0.48-1.91,0.48
	c-0.72,0-1.19,0.24-1.67,0.24c-0.48,0-0.72,0-0.72,0c-0.24,0-0.48,0-0.48-0.24s-0.24-0.48-0.24-0.71v-0.95
	c0-0.24,0.24-0.24,0.48-0.24c1.19-0.24,1.91-0.71,2.39-1.43c0.48-0.71,0.71-1.43,0.95-2.38c0-0.24,0-0.95,0.24-1.67
	c0-0.95,0-1.91,0.24-2.86c0-1.19,0-2.38,0-3.57c0-1.19,0-2.38,0-3.57L323.75,105.13z M327.81,74.38c0.48,0,0.71,0.24,0.95,0.95
	c0,0,0.24,0.24,0.48,0.71c0.24,0.48,0.48,0.71,0.95,1.19c0.24,0.48,0.72,0.71,0.95,0.95c0.24,0.24,0.48,0.48,0.48,0.48
	c0.48,0.24,0.72,0.24,0.72,0.48c0.24,0.24,0.24,0.71,0.24,1.19c0,0.24-0.24,0.48-0.48,0.48c-0.24,0-0.48,0.24-0.72,0.48
	s-0.71,0.71-0.95,0.95c-0.24,0.48-0.72,0.71-0.96,1.19c-0.24,0.48-0.48,0.71-0.71,1.19c0,0.48-0.48,0.48-1.19,0.48
	c-0.48,0-0.96-0.24-1.43-0.71c-0.24-0.48-0.96-1.19-1.67-1.91c0,0-0.24-0.48-0.48-0.95c-0.24-0.48-0.72-0.95-1.19-1.19
	c-0.72-0.24-0.96-0.71-0.96-1.19c0-0.24,0-0.48,0.24-0.71c0.24-0.24,0.48-0.48,0.72-0.48c0.24,0,0.48-0.24,0.95-0.48
	c0.48-0.24,0.72-0.71,1.19-1.19c0.48-0.48,0.72-0.71,1.19-1.19c0.24-0.24,0.48-0.48,0.48-0.71c0.24-0.48,0.48-0.71,0.48-0.71h0.72
	V74.38z"/>
<linearGradient id="SVGID_9_" gradientUnits="userSpaceOnUse" x1="490.9257" y1="17.869" x2="537.6039" y2="17.869" gradientTransform="matrix(1 0 0 -1 -115.9994 128)">
	<stop  offset="0" style="stop-color:#F9C924"/>
	<stop  offset="0.3198" style="stop-color:#E4AF18"/>
	<stop  offset="0.6802" style="stop-color:#FFF98C"/>
	<stop  offset="1" style="stop-color:#FFD440"/>
</linearGradient>
<path class="st8" d="M421.56,104.65c0,0.95,0,1.67-0.24,2.86c0,1.19-0.48,2.62-0.71,4.05c-0.48,1.43-1.19,2.86-2.15,4.53
	c-0.95,1.67-2.15,3.1-3.82,4.77c-2.86,2.86-5.72,5-9.06,7.15c-3.1,1.91-6.44,3.57-9.78,5c-3.34,1.43-6.68,2.38-10.26,3.34
	c-3.58,0.95-6.92,1.67-10.5,2.14c0-0.24,0-0.48,0-0.71s0-0.71,0-0.95c0-0.48,0-0.48,0-0.71c0.72-0.24,1.43-0.71,1.91-1.19
	c0.48-0.48,0.96-0.95,1.19-1.67c0.24-0.48,0.48-1.19,0.72-1.67c0.24-0.48,0.24-0.95,0.24-1.19c0-0.95,0.24-2.38,0.24-4.05
	s0-3.81,0-5.96s0-4.53,0-6.91V97.02c0-2.38,0-4.29,0-5.72c0-1.43,0-2.38,0-3.1c0-0.71,0-0.95,0-1.19c0-0.48-0.24-0.95-0.72-1.43
	c-0.48-0.48-1.43-0.71-3.1-0.95c-0.24,0-0.24-0.24-0.24-0.24c0-0.24,0-0.72,0-1.19v-0.95c1.19,0,2.63,0,4.29,0
	c1.67,0,3.34,0,5.25-0.24c1.67,0,3.34,0,5.01-0.24c1.67,0,2.86,0,3.82,0c1.19,0,2.86,0,4.53,0.24s3.58,0.48,5.25,0.95
	c1.67,0.48,3.82,1.19,5.73,1.91c1.91,0.95,3.58,1.91,5.25,3.34C418.94,92.5,421.56,98.22,421.56,104.65z M392.22,84.15
	c-0.72,0-1.43,0-2.15,0.24c-0.72,0.24-1.19,0.48-1.43,0.95c-0.24,0.24-0.48,0.71-0.48,1.67c-0.24,0.95-0.24,2.38-0.24,3.81
	c0,1.67,0,3.34-0.24,5.24c0,1.91,0,3.81,0,5.72v8.1c0,2.62,0,5.24,0,7.86c0,2.38,0.24,4.77,0.24,6.67c0.24,1.91,0.24,3.57,0.72,4.53
	c0.24,0.95,1.19,1.43,2.38,1.19c1.19-0.24,2.63-0.71,4.3-1.67c1.67-0.71,3.1-1.67,4.53-2.62s2.62-1.91,3.34-2.38
	c1.67-1.19,2.86-2.38,4.05-4.05c1.19-1.43,1.91-3.1,2.62-5c0.72-1.67,1.19-3.57,1.43-5.48c0.24-1.91,0.48-3.81,0.48-5.48
	c0-2.86-0.48-5.24-1.19-7.15c-0.72-1.91-1.67-3.81-2.86-5.24c-1.19-1.43-2.39-2.62-4.06-3.57c-1.67-0.95-2.86-1.67-4.29-2.14
	s-2.86-0.71-4.05-0.95C394.13,84.15,393.17,84.15,392.22,84.15z M399.37,99.17c0.24,0.48,0.48,0.71,0.72,1.19
	c0.24,0.48,0.71,0.95,0.95,1.43s0.71,0.71,1.19,0.95c0.48,0.24,0.72,0.24,0.72,0.48c0.24,0.24,0.24,0.71,0.24,1.19
	c0,0-0.24,0.24-0.48,0.48c-0.24,0.24-0.72,0.48-1.19,0.95c-0.48,0.48-0.96,0.95-1.19,1.43c-0.24,0.48-0.71,1.19-0.95,1.91
	c0,0.48-0.48,0.48-1.19,0.48c-0.48,0-0.96-0.24-1.43-0.71c-0.24-0.48-0.96-1.19-1.67-1.91c0,0-0.24-0.48-0.48-0.95
	c-0.24-0.48-0.72-0.95-1.19-1.19c-0.72-0.24-0.96-0.71-0.96-1.19c0-0.24,0.24-0.48,0.48-0.95c0.48-0.24,0.72-0.71,1.43-1.19
	c0.48-0.48,1.19-0.71,1.67-1.19c0.48-0.48,0.96-0.95,1.19-1.43c0-0.24,0.24-0.48,0.24-0.48s0.24,0,0.48,0h0.71
	C399.14,98.69,399.14,98.93,399.37,99.17z"/>
<linearGradient id="SVGID_10_" gradientUnits="userSpaceOnUse" x1="537.4651" y1="22.516" x2="569.9812" y2="22.516" gradientTransform="matrix(1 0 0 -1 -115.9994 128)">
	<stop  offset="0" style="stop-color:#F9C924"/>
	<stop  offset="0.3198" style="stop-color:#E4AF18"/>
	<stop  offset="0.6802" style="stop-color:#FFF98C"/>
	<stop  offset="1" style="stop-color:#FFD440"/>
</linearGradient>
<path class="st9" d="M421.56,91.3c0-0.48,0.24-0.95,0.48-1.19c0.24-0.24,0.72-0.48,1.19-0.48h29.58c0.48,0,0.71,0.24,0.95,0.48
	c0.24,0.24,0.48,0.71,0.48,1.19c0,0.48-0.24,0.95-0.48,1.19c-0.24,0.24-0.71,0.48-0.95,0.48h-29.58c-0.48,0-0.71-0.24-1.19-0.48
	C421.56,92.02,421.56,91.78,421.56,91.3z M427.53,104.17c0.48-0.95,1.19-1.67,1.91-2.14c0.72-0.48,1.19-0.95,1.91-1.43
	c0.72-0.48,1.43-0.71,2.15-1.19c0.71-0.24,1.67-0.71,2.38-1.19c0.24-0.24,0.72-0.48,0.96-0.95s0.48-0.71,0.48-1.19
	c0.24-0.48,0.24-0.71,0.24-0.95s0.24-0.48,0.24-0.48s0.24,0.24,0.24,0.48s0.24,0.48,0.24,0.95c0.24,0.48,0.48,0.71,0.71,1.19
	c0.24,0.48,0.96,0.71,1.67,1.19c1.19,0.48,2.15,0.95,3.1,1.19c0.96,0.24,1.91,0.95,2.39,1.67c0.71,0.71,1.19,1.43,1.19,2.14
	c0.24,0.71,0.24,1.19,0.24,1.91c0.48,1.19,0.48,4.77,0.24,10.96c-0.24,6.2,0,10.49,0.48,13.11c0.48,2.62,0.95,3.81,1.19,3.81
	c0.48,0,1.19,0,1.67-0.24c0.71-0.24,1.19-0.48,1.43-0.48c0.24,0,0.24,0,0.48,0.24c0.24,0.24,0.24,0.48,0.24,0.71l-0.24,1.19
	c0,0.24-0.24,0.48-0.48,0.71c-0.24,0.24-0.72,0.24-1.43,0.48c-0.72,0.24-1.43,0.48-2.15,0.71c-0.71,0.24-1.67,0.48-2.62,0.48
	c-0.96,0-1.67,0.24-2.39,0.24c-0.24,0-0.71-0.48-1.19-1.67c-0.48-1.19-0.72-2.38-1.19-3.81c-0.48-1.43-0.72-2.86-0.96-4.29
	c-0.24-1.43-0.48-2.62-0.71-3.34c-0.72,0.48-1.67,0.95-2.63,1.19c-0.95,0.24-1.91,0.95-2.62,1.19c-0.95,0.48-1.67,0.71-2.38,0.95
	c-0.72,0.24-1.19,0.24-1.43,0.24c-1.43,0-2.86-0.71-4.3-1.91c-0.48-0.48-0.71-0.95-1.19-1.91c-0.48-0.95-0.72-2.15-0.72-3.57
	c0-0.48,0.24-0.95,0.48-1.43c0.48-0.48,0.72-1.19,1.43-1.67c0.48-0.48,1.19-0.95,1.67-1.43c0.72-0.48,1.19-0.71,1.67-1.19
	c1.67-0.95,3.34-1.67,4.77-2.62c1.67-0.95,3.34-1.43,5.25-1.67c0-0.48,0-0.71,0-0.71c0-0.24,0-0.24,0-0.48v-1.19
	c0-1.19,0-2.14-0.24-3.1c-0.24-0.71-0.48-1.43-0.72-1.67c-0.24-0.24-0.71-0.71-1.43-0.95c-0.71-0.24-1.67-0.48-2.38-0.48
	c-0.24,0.24-0.72,0.48-0.96,0.71c-0.24,0.24-0.71,0.48-1.19,0.71c0,0.24,0,0.71,0,1.19c0,0.48,0,0.95,0,1.67
	c0,0.48-0.24,0.71-0.48,0.95l-4.53,1.43c-0.48,0.24-0.71,0.24-0.95,0.24c-0.24,0-0.48,0-0.48,0c-0.71,0-1.19-0.24-1.19-0.48
	s0-0.71,0.24-1.19c0.24-0.48,0.48-0.95,0.95-1.67C427.05,104.89,427.53,104.65,427.53,104.17z M438.26,74.38
	c0.48,0,0.71,0.24,0.95,0.95c0,0,0.24,0.24,0.48,0.71c0.24,0.48,0.48,0.71,0.95,1.19c0.24,0.48,0.72,0.71,0.96,0.95
	c0.24,0.24,0.48,0.48,0.48,0.48c0.48,0.24,0.72,0.24,0.72,0.48c0.24,0.24,0.24,0.71,0.24,1.19c0,0.24-0.24,0.48-0.48,0.48
	c-0.24,0-0.48,0.24-0.71,0.48c-0.24,0.24-0.72,0.71-0.96,0.95c-0.24,0.48-0.71,0.71-0.95,1.19c-0.24,0.48-0.48,0.71-0.72,1.19
	c0,0.48-0.48,0.48-1.19,0.48c-0.48,0-0.95-0.24-1.43-0.71c-0.24-0.48-0.96-1.19-1.67-1.91c0,0-0.24-0.48-0.48-0.95
	c-0.24-0.48-0.71-0.95-1.19-1.19c-0.72-0.24-0.95-0.71-0.95-1.19c0-0.24,0-0.48,0.24-0.71c0.24-0.24,0.48-0.48,0.72-0.48
	c0.24,0,0.48-0.24,0.95-0.48c0.48-0.24,0.72-0.71,1.19-1.19c0.48-0.48,0.71-0.71,1.19-1.19c0.24-0.24,0.48-0.48,0.48-0.71
	c0.24-0.48,0.48-0.71,0.48-0.71h0.72V74.38z M436.11,123.95c0.24,0,0.72,0,1.19-0.24c0.48-0.24,1.19-0.48,2.15-0.71
	c0.72-0.48,0.96-0.95,1.19-1.43c0-0.24,0-0.48,0-0.95s0-0.95,0-1.43s0-0.95,0-1.43v-1.19c0-0.71,0-1.19-0.24-1.19
	c-0.95,0.24-1.43,0.24-1.91,0.48c-0.48,0.24-0.72,0.24-0.96,0.48s-0.48,0.48-0.71,0.48c-0.24,0.24-0.48,0.48-0.72,0.71
	c-0.24,0.24-0.48,0.48-0.71,0.95c-0.24,0.24-0.24,0.71-0.24,1.43c0,0.48,0,1.19-0.24,1.67c0,0.48-0.24,0.95-0.24,1.43
	c0,0.48,0,0.71,0.24,0.95C435.16,123.72,435.4,123.95,436.11,123.95z"/>
<linearGradient id="SVGID_11_" gradientUnits="userSpaceOnUse" x1="566.9042" y1="18.2264" x2="618.0244" y2="18.2264" gradientTransform="matrix(1 0 0 -1 -115.9994 128)">
	<stop  offset="0" style="stop-color:#F9C924"/>
	<stop  offset="0.3198" style="stop-color:#E4AF18"/>
	<stop  offset="0.6802" style="stop-color:#FFF98C"/>
	<stop  offset="1" style="stop-color:#FFD440"/>
</linearGradient>
<path class="st10" d="M450.9,91.3c0-0.48,0.24-0.95,0.71-1.19c0.48-0.24,0.96-0.48,1.67-0.48h46.52c0.48,0,1.19,0.24,1.67,0.48
	c0.48,0.24,0.72,0.71,0.72,1.19c0,0.48-0.24,0.95-0.72,1.19c-0.48,0.24-0.95,0.48-1.67,0.48h-46.52c-0.71,0-1.19-0.24-1.67-0.48
	C451.14,92.02,450.9,91.78,450.9,91.3z M467.6,102.03c-1.67,0.24-2.38,0.48-2.62,0.95c-0.24,0.24-0.24,0.95,0,1.67
	c0.24,0.95,0.72,2.62,1.19,4.77c0.72,2.14,1.43,4.77,2.63,7.86c0,0.24,0.24,0.24,0.24,0.24c0.24,0,0.24,0,0.24-0.24
	c0.48-0.95,1.19-2.14,2.15-3.57c0.95-1.19,1.67-2.62,2.38-3.81c0.72-1.19,0.96-2.62,1.19-3.57c0.24-1.19-0.24-2.14-1.19-2.86
	c0-0.48,0.24-0.95,0.48-1.43c0.24-0.48,0.48-0.48,0.72-0.48c1.67,0.48,2.86,0.48,3.58,0.48c0.72,0,1.43,0,1.67,0.24
	c0.48,0,0.72,0.48,0.96,0.95c0.24,0.48,0.48,1.19,0.95,2.62c0.24,0.95,0.72,2.14,0.96,3.34c0.24,1.19,0.48,2.62,0.95,3.81
	c0.24,1.43,0.72,2.62,0.95,4.05c0.24,1.43,0.72,2.62,1.19,3.81l0.24,0.24c0.24,0,0.24,0,0.24-0.24c0.24-0.71,0.72-1.67,1.19-2.86
	c0.48-1.19,0.95-2.38,1.19-3.57c0.48-1.19,0.71-2.38,1.19-3.57c0.48-1.19,0.72-2.14,0.95-2.86c0.24-0.71,0.48-1.43,0.72-2.38
	c0.24-0.71,0.24-1.19,0.24-1.67s-0.48-0.71-1.19-0.95c-0.72-0.24-1.67-0.48-3.1-0.71c0-0.24,0.24-0.48,0.24-0.95
	c0.24-0.48,0.24-0.71,0.24-0.95c3.58-0.48,5.97-0.71,7.4-0.71c1.43,0,2.38,0.24,2.62,0.95c0.24,0.48,0,1.43-0.72,2.38
	c-0.71,1.19-1.43,2.38-2.15,4.05c-0.48,0.71-0.96,1.91-1.43,3.34c-0.72,1.43-1.19,3.1-1.91,4.77c-0.72,1.67-1.43,3.34-1.91,4.77
	c-0.71,1.67-1.19,2.86-1.67,3.57c-0.71,1.43-1.43,2.62-1.91,3.57c-0.48,0.95-0.95,1.43-1.19,1.91c0,0.24-0.24,0.48-0.71,0.71
	c-0.24,0.24-0.96,0.24-1.67,0.24c-0.48,0-0.96,0-0.96,0c-0.24,0-0.24-0.24-0.48-0.71c-0.96-2.62-1.91-5.48-2.86-8.34
	c-0.95-2.86-1.91-5.48-2.62-7.63l-0.24-0.24h-0.24c-0.71,1.67-1.67,3.1-2.38,4.29c-0.72,1.19-1.43,2.14-2.15,3.34
	c-0.71,0.95-1.19,1.91-1.67,2.86c-0.48,0.95-0.95,1.91-1.43,3.1c-0.24,0.48-0.48,0.71-0.71,0.71h-0.96c-0.48,0-0.95-0.24-1.19-0.48
	c-0.24-0.24-0.48-0.71-0.72-1.19c-0.71-1.67-1.19-3.1-1.67-4.77c-0.48-1.43-0.95-2.86-1.67-4.53c-0.48-1.43-1.19-2.86-1.67-4.53
	c-0.48-1.43-1.19-3.1-1.91-4.77c-0.24-0.95-0.72-1.67-0.96-2.38c-0.24-0.71-0.48-1.43-0.95-1.91c-0.24-0.71-0.72-1.19-0.95-1.43
	c-0.24-0.48-0.72-0.71-1.43-0.71c-0.24,0-0.48-0.24-0.24-0.48l0.48-0.95c0.24-0.24,0.24-0.48,0.48-0.48c1.19,0,2.15,0,3.1,0.24
	s1.91,0.48,2.86,0.71c0.96,0.24,1.91,0.48,2.86,0.71c0.96,0.24,1.91,0.24,3.1,0.24c0.48,0,0.48,0.24,0.72,0.48L467.6,102.03z"/>
<linearGradient id="SVGID_12_" gradientUnits="userSpaceOnUse" x1="613.9002" y1="22.516" x2="646.4178" y2="22.516" gradientTransform="matrix(1 0 0 -1 -115.9994 128)">
	<stop  offset="0" style="stop-color:#F9C924"/>
	<stop  offset="0.3198" style="stop-color:#E4AF18"/>
	<stop  offset="0.6802" style="stop-color:#FFF98C"/>
	<stop  offset="1" style="stop-color:#FFD440"/>
</linearGradient>
<path class="st11" d="M497.9,91.3c0-0.48,0.24-0.95,0.48-1.19c0.24-0.24,0.72-0.48,1.19-0.48h29.58c0.48,0,0.72,0.24,0.95,0.48
	c0.24,0.24,0.48,0.71,0.48,1.19c0,0.48-0.24,0.95-0.48,1.19c-0.24,0.24-0.71,0.48-0.95,0.48h-29.58c-0.48,0-0.72-0.24-1.19-0.48
	C498.14,92.02,497.9,91.78,497.9,91.3z M504.1,104.17c0.48-0.95,1.19-1.67,1.91-2.14c0.71-0.48,1.19-0.95,1.91-1.43
	c0.72-0.48,1.43-0.71,2.15-1.19c0.72-0.24,1.67-0.71,2.38-1.19c0.24-0.24,0.72-0.48,0.96-0.95c0.24-0.48,0.48-0.71,0.48-1.19
	c0.24-0.48,0.24-0.71,0.24-0.95s0.24-0.48,0.24-0.48s0.24,0.24,0.24,0.48s0.24,0.48,0.24,0.95c0.24,0.48,0.48,0.71,0.72,1.19
	c0.24,0.48,0.95,0.71,1.67,1.19c1.19,0.48,2.15,0.95,3.1,1.19c0.95,0.24,1.91,0.95,2.38,1.67c0.72,0.71,1.19,1.43,1.19,2.14
	c0.24,0.71,0.24,1.19,0.24,1.91c0.48,1.19,0.48,4.77,0.24,10.96c-0.24,6.2,0,10.49,0.48,13.11c0.48,2.62,0.95,3.81,1.19,3.81
	c0.48,0,1.19,0,1.67-0.24c0.71-0.24,1.19-0.48,1.43-0.48c0.24,0,0.24,0,0.48,0.24c0.24,0.24,0.24,0.48,0.24,0.71l-0.24,1.19
	c0,0.24-0.24,0.48-0.48,0.71c-0.24,0.24-0.72,0.24-1.43,0.48c-0.72,0.24-1.43,0.48-2.15,0.71c-0.71,0.24-1.67,0.48-2.62,0.48
	c-0.96,0-1.67,0.24-2.39,0.24c-0.24,0-0.71-0.48-1.19-1.67c-0.48-1.19-0.71-2.38-1.19-3.81c-0.48-1.43-0.72-2.86-0.96-4.29
	c-0.24-1.43-0.48-2.62-0.71-3.34c-0.72,0.48-1.67,0.95-2.62,1.19c-0.96,0.24-1.91,0.95-2.63,1.19c-0.95,0.48-1.67,0.71-2.38,0.95
	c-0.72,0.24-1.19,0.24-1.43,0.24c-1.43,0-2.86-0.71-4.3-1.91c-0.48-0.48-0.71-0.95-1.19-1.91c-0.48-0.95-0.71-2.15-0.71-3.57
	c0-0.48,0.24-0.95,0.48-1.43c0.48-0.48,0.72-1.19,1.43-1.67c0.48-0.48,1.19-0.95,1.67-1.43c0.72-0.48,1.19-0.71,1.67-1.19
	c1.67-0.95,3.34-1.67,4.77-2.62c1.67-0.95,3.34-1.43,5.25-1.67c0-0.48,0-0.71,0-0.71c0-0.24,0-0.24,0-0.48v-1.19
	c0-1.19,0-2.14-0.24-3.1c-0.24-0.71-0.48-1.43-0.71-1.67c-0.24-0.24-0.72-0.71-1.43-0.95c-0.71-0.24-1.67-0.48-2.38-0.48
	c-0.24,0.24-0.72,0.48-0.95,0.71c-0.24,0.24-0.72,0.48-1.19,0.71c0,0.24,0,0.71,0,1.19c0,0.48,0,0.95,0,1.67
	c0,0.48-0.24,0.71-0.48,0.95l-4.53,1.43c-0.48,0.24-0.71,0.24-0.95,0.24c-0.24,0-0.48,0-0.48,0c-0.71,0-1.19-0.24-1.19-0.48
	s0-0.71,0.24-1.19c0.24-0.48,0.48-0.95,0.95-1.67C503.63,104.89,503.86,104.65,504.1,104.17z M514.6,74.38
	c0.48,0,0.72,0.24,0.96,0.95c0,0,0.24,0.24,0.48,0.71c0.24,0.48,0.48,0.71,0.96,1.19c0.24,0.48,0.71,0.71,0.95,0.95
	c0.24,0.24,0.48,0.48,0.48,0.48c0.48,0.24,0.71,0.24,0.71,0.48s0.24,0.71,0.24,1.19c0,0.24-0.24,0.48-0.48,0.48
	c-0.24,0-0.48,0.24-0.71,0.48c-0.24,0.24-0.72,0.71-0.96,0.95c-0.24,0.48-0.71,0.71-0.95,1.19s-0.48,0.71-0.71,1.19
	c0,0.48-0.48,0.48-1.19,0.48c-0.48,0-0.95-0.24-1.43-0.71c-0.24-0.48-0.95-1.19-1.67-1.91c0,0-0.24-0.48-0.48-0.95
	c-0.24-0.48-0.72-0.95-1.19-1.19c-0.71-0.24-0.95-0.71-0.95-1.19c0-0.24,0-0.48,0.24-0.71c0.24-0.24,0.48-0.48,0.71-0.48
	c0.24,0,0.48-0.24,0.96-0.48c0.48-0.24,0.71-0.71,1.19-1.19c0.48-0.48,0.71-0.71,1.19-1.19c0.24-0.24,0.48-0.48,0.48-0.71
	c0.24-0.48,0.48-0.71,0.48-0.71h0.71V74.38z M512.45,123.95c0.24,0,0.72,0,1.19-0.24c0.48-0.24,1.19-0.48,2.15-0.71
	c0.72-0.48,0.96-0.95,1.19-1.43c0-0.24,0-0.48,0-0.95s0-0.95,0-1.43s0-0.95,0-1.43v-1.19c0-0.71,0-1.19-0.24-1.19
	c-0.96,0.24-1.43,0.24-1.91,0.48c-0.48,0.24-0.72,0.24-0.95,0.48c-0.24,0.24-0.48,0.48-0.72,0.48c-0.24,0.24-0.48,0.48-0.72,0.71
	c-0.24,0.24-0.48,0.48-0.71,0.95c-0.24,0.24-0.24,0.71-0.24,1.43c0,0.48,0,1.19-0.24,1.67c0,0.48-0.24,0.95-0.24,1.43
	c0,0.48,0,0.71,0.24,0.95C511.5,123.72,511.98,123.95,512.45,123.95z"/>
<linearGradient id="SVGID_13_" gradientUnits="userSpaceOnUse" x1="643.2989" y1="23.4694" x2="666.7065" y2="23.4694" gradientTransform="matrix(1 0 0 -1 -115.9994 128)">
	<stop  offset="0" style="stop-color:#F9C924"/>
	<stop  offset="0.3198" style="stop-color:#E4AF18"/>
	<stop  offset="0.6802" style="stop-color:#FFF98C"/>
	<stop  offset="1" style="stop-color:#FFD440"/>
</linearGradient>
<path class="st12" d="M527.24,91.3c0-0.48,0-0.95,0.24-1.19c0.24-0.24,0.48-0.48,0.71-0.48h5.96v-2.86c0-0.24,0-0.48,0-0.95
	c0-0.48,0-0.95-0.24-1.43c0-0.48-0.24-0.95-0.24-1.43s-0.24-0.71-0.24-0.71c-0.48,0-0.72-0.24-1.19-0.48
	c-0.48-0.24-0.96-0.48-1.19-0.48c0,0-0.24-0.24-0.24-0.48s0-0.48,0-0.48c0.48-0.48,1.19-0.71,1.91-0.95
	c0.72-0.24,1.43-0.48,2.15-0.48c0.71-0.24,1.67-0.24,2.62-0.48c0.96-0.24,1.67-0.48,2.63-0.71c0.24-0.24,0.24-0.24,0.48-0.24
	l0.24,0.24l0.24,0.24l0.24,0.24c0.24,0,0.48,0.24,0.48,0.95c0,0.24,0,0.71,0,1.19s0,1.19,0,1.67s0,1.19,0,1.67s0,0.72,0,0.95
	l-0.71,5h8.59c0.24,0,0.48,0.24,0.71,0.48s0.24,0.71,0.24,1.19c0,0.48,0,0.95-0.24,1.19s-0.48,0.48-0.71,0.48h-8.59v0.95
	c0,1.67,0,3.81,0,5.96s0,4.53,0,6.91s0,4.77,0,6.91s0,4.05,0,5.48v3.34c0,0.71,0.24,1.43,0.48,2.14c0.24,0.71,0.71,1.19,1.19,1.67
	c0.48,0.48,0.95,0.95,1.67,1.19c0.71,0.24,1.19,0.24,1.91,0c0.24,0,0.48-0.24,0.71-0.24c0,0,0.24,0,0.24,0.24s0.24,0.48,0.24,0.71
	s0,0.48,0,0.71c0,0.48-0.24,0.71-0.48,0.71c-0.95,0.48-1.67,0.95-2.15,1.19c-0.48,0.24-0.72,0.48-0.96,0.48
	c-0.24,0-0.71,0.24-0.95,0.24h-1.91c-0.95,0-1.91-0.24-2.86-0.71c-1.19-0.48-2.15-1.19-2.86-2.14c-0.48-0.71-0.96-1.43-0.96-2.14
	c-0.24-0.71-0.24-1.67-0.24-2.62c0-0.95,0-2.38,0-4.53s0-4.53,0-7.15V92.73h-5.72c-0.24,0-0.48-0.24-0.72-0.48
	C527.48,92.02,527.24,91.78,527.24,91.3z"/>
<linearGradient id="SVGID_14_" gradientUnits="userSpaceOnUse" x1="396.2706" y1="-44.0133" x2="453.4706" y2="-44.0133" gradientTransform="matrix(1 0 0 -1 -115.9994 128)">
	<stop  offset="0" style="stop-color:#F9C924"/>
	<stop  offset="0.3198" style="stop-color:#E4AF18"/>
	<stop  offset="0.6802" style="stop-color:#FFF98C"/>
	<stop  offset="1" style="stop-color:#FFD440"/>
</linearGradient>
<path class="st13" d="M334.49,171.86c-1.67-1.19-3.34-1.43-4.77-1.67c-1.43,0-2.86,0.24-3.82,0.71c-2.15,0.71-3.34,1.67-4.3,2.15
	c-0.71,0.71-1.19,0.95-1.19,0.95s0.24,0,0.72-0.24c-0.48,0.24-0.72,0.48-0.72,0.48s0.24,0,0.72-0.24c0.48-0.24,1.19-0.24,2.38-0.48
	c1.19,0,2.63,0,4.29,0.48c0.72,0.24,1.67,0.48,2.63,1.19c0.95,0.48,1.67,1.19,2.15,2.38c0.48,0.95,0.24,2.14-0.71,3.1
	c-0.72,0.71-1.91,1.19-2.86,1.43c-1.91,0.48-3.58,0.24-5.25-0.24c-0.95-0.48-1.91-0.95-2.62-1.43c-0.72-0.48-4.53-2.62-5.73-3.1
	c-1.91-0.71-3.82-1.19-5.72-1.19c-2.15,0.24-3.82,0.95-5.25,1.67c0.48-1.43,0.96-3.1,1.19-5c0-2.38-0.48-4.77-1.67-7.39
	c-1.19-2.38-3.34-4.77-6.2-5.96c-2.86-1.43-5.96-1.43-8.83-0.71c-2.86,0.95-5.49,2.86-6.92,5.48c-1.43,2.62-1.91,5.72-1.19,8.34
	c0.72,2.62,2.62,4.53,4.53,5.72c1.91,1.19,4.06,1.19,5.73,0.95c1.43-0.24,2.62-1.19,3.1-2.38c0.24-0.48,0.24-0.95,0.24-1.43
	c0-1.91-1.43-3.34-3.34-3.34c-1.91,0-3.34,1.43-3.34,3.34c0,1.19,0.71,2.38,1.67,2.86c-0.96-0.24-2.15-0.95-3.1-1.67
	c-1.67-0.95-2.63-2.38-3.1-4.53c-0.48-2.14,0-4.53,1.19-6.67c1.19-1.91,3.1-3.1,5.49-3.81c2.39-0.71,5.01-0.48,7.4,0.71
	c2.38,0.95,3.58,2.38,4.77,4.53c1.19,1.91,1.67,4.05,1.67,5.96c0,3.81-1.19,6.91-2.86,8.58c-1.67,1.67-3.34,2.38-4.53,2.62
	c-0.48,0.24-0.95,0.24-1.19,0.24s-0.48,0-0.48,0s0.24,0,0.48,0s0.72,0,1.19,0c1.19,0,3.1-0.48,5.25-2.14
	c0.95-0.71,2.15-1.91,2.86-3.57c1.43-0.95,3.34-1.67,5.73-1.43c1.67,0,3.34,0.71,5.01,1.43c1.67,0.95,3.34,2.14,5.25,3.34
	c1.91,1.19,3.82,2.62,6.44,3.34c2.39,0.71,5.25,0.95,7.87-0.71C339.5,181.39,337.59,173.76,334.49,171.86z"/>
<linearGradient id="SVGID_15_" gradientUnits="userSpaceOnUse" x1="337.3698" y1="-43.9242" x2="394.5699" y2="-43.9242" gradientTransform="matrix(1 0 0 -1 -115.9994 128)">
	<stop  offset="0" style="stop-color:#F9C924"/>
	<stop  offset="0.3198" style="stop-color:#E4AF18"/>
	<stop  offset="0.6802" style="stop-color:#FFF98C"/>
	<stop  offset="1" style="stop-color:#FFD440"/>
</linearGradient>
<path class="st14" d="M270.07,158.51c-2.86-0.95-6.2-0.71-8.83,0.71c-2.86,1.19-5.01,3.57-6.2,5.96c-1.19,2.38-1.91,5-1.67,7.39
	c0,1.91,0.48,3.57,1.19,5c-1.43-0.95-3.1-1.67-5.25-1.67c-1.91,0-3.82,0.48-5.73,1.19c-0.95,0.48-4.77,2.62-5.72,3.1
	c-0.96,0.48-1.91,0.95-2.63,1.43c-1.67,0.48-3.34,0.71-5.25,0.24c-1.19-0.24-2.15-0.71-2.86-1.43c-0.72-0.71-1.19-1.91-0.72-3.1
	c0.48-0.95,1.43-1.91,2.15-2.38c0.95-0.48,1.91-0.95,2.62-1.19c1.67-0.48,3.1-0.48,4.29-0.48c1.19,0,1.91,0.24,2.39,0.48
	c0.48,0.24,0.71,0.24,0.71,0.24s-0.24-0.24-0.71-0.48c0.48,0.24,0.71,0.24,0.71,0.24s-0.48,0-1.43-0.71
	c-0.71-0.48-2.15-1.43-4.29-2.14c-0.96-0.24-2.39-0.71-3.82-0.71c-1.43,0-3.1,0.48-4.77,1.67c-3.1,2.14-5.01,9.53,0.48,12.87
	c2.39,1.43,5.49,1.43,7.87,0.71c2.39-0.71,4.53-2.14,6.44-3.34s3.58-2.62,5.25-3.34c1.67-0.95,3.34-1.43,5.01-1.43
	c2.15,0,4.05,0.71,5.72,1.43c0.71,1.43,1.91,2.62,2.86,3.57c2.15,1.67,4.06,1.91,5.25,2.14c0.48,0,0.95,0,1.19,0
	c0.24,0,0.48,0,0.48,0s-0.24,0-0.48,0c-0.24,0-0.72-0.24-1.19-0.24c-1.19-0.24-2.86-0.95-4.53-2.62c-1.67-1.67-2.86-4.53-2.86-8.58
	c0-1.91,0.48-4.05,1.67-5.96c1.19-1.91,2.39-3.34,4.77-4.53c2.39-1.19,5.01-1.19,7.4-0.71c2.38,0.71,4.05,1.67,5.49,3.81
	c1.19,1.91,1.67,4.53,1.19,6.67c-0.48,2.14-1.43,3.57-3.1,4.53c-0.95,0.71-1.91,1.43-3.1,1.67c0.96-0.71,1.67-1.67,1.67-2.86
	c0-1.91-1.43-3.34-3.34-3.34c-1.91,0-3.34,1.43-3.34,3.34c0,0.48,0,0.95,0.24,1.43c0.48,1.19,1.67,1.91,3.1,2.38
	c1.67,0.48,3.82,0.24,5.73-0.95c1.91-0.95,3.58-2.86,4.53-5.72c0.72-2.62,0.48-5.72-1.19-8.34
	C275.56,161.37,272.94,159.23,270.07,158.51z"/>
<linearGradient id="SVGID_16_" gradientUnits="userSpaceOnUse" x1="159.2024" y1="-49.0992" x2="326.1961" y2="-49.0992" gradientTransform="matrix(1 0 0 -1 -115.9994 128)">
	<stop  offset="0" style="stop-color:#F9C924"/>
	<stop  offset="0.3198" style="stop-color:#E4AF18"/>
	<stop  offset="0.6802" style="stop-color:#FFF98C"/>
	<stop  offset="1" style="stop-color:#FFD440"/>
</linearGradient>
<path class="st15" d="M47.02,173.29c-2.15,0-3.82,1.67-3.82,3.81c0,2.14,1.67,3.81,3.82,3.81c1.67,0,2.86-0.95,3.58-2.38h159.6v-3.1
	H50.6C49.88,174.24,48.45,173.29,47.02,173.29z"/>
<linearGradient id="SVGID_17_" gradientUnits="userSpaceOnUse" x1="464.7993" y1="-49.2184" x2="631.7927" y2="-49.2184" gradientTransform="matrix(1 0 0 -1 -115.9994 128)">
	<stop  offset="0" style="stop-color:#F9C924"/>
	<stop  offset="0.3198" style="stop-color:#E4AF18"/>
	<stop  offset="0.6802" style="stop-color:#FFF98C"/>
	<stop  offset="1" style="stop-color:#FFD440"/>
</linearGradient>
<path class="st16" d="M511.98,173.29c-1.67,0-2.86,0.95-3.58,2.38H348.8v3.1h159.6c0.48,1.43,1.91,2.38,3.58,2.38
	c2.15,0,3.82-1.67,3.82-3.81C515.79,174.95,513.88,173.29,511.98,173.29z"/>
<linearGradient id="SVGID_18_" gradientUnits="userSpaceOnUse" x1="249.4125" y1="-90.2095" x2="536.6357" y2="-90.2095" gradientTransform="matrix(1 0 0 -1 -115.9994 128)">
	<stop  offset="0" style="stop-color:#F9C924"/>
	<stop  offset="0.3198" style="stop-color:#E4AF18"/>
	<stop  offset="0.6802" style="stop-color:#FFF98C"/>
	<stop  offset="1" style="stop-color:#FFD440"/>
</linearGradient>
<path class="st17" d="M140.77,218.81v6.91h-1.43V210.7h1.43v6.91l6.44-6.91h1.91l-6.92,7.39l7.16,7.39h-1.91L140.77,218.81z"/>
<linearGradient id="SVGID_19_" gradientUnits="userSpaceOnUse" x1="249.4125" y1="-89.8522" x2="536.6434" y2="-89.8522" gradientTransform="matrix(1 0 0 -1 -115.9994 128)">
	<stop  offset="0" style="stop-color:#F9C924"/>
	<stop  offset="0.3198" style="stop-color:#E4AF18"/>
	<stop  offset="0.6802" style="stop-color:#FFF98C"/>
	<stop  offset="1" style="stop-color:#FFD440"/>
</linearGradient>
<path class="st18" d="M151.51,209.75h1.43v6.2c0.72-1.43,2.39-2.14,4.06-2.14c2.62,0,4.77,1.67,4.77,5v6.91h-1.43v-6.67
	c0-2.62-1.43-3.81-3.58-3.81c-2.15,0-3.82,1.43-3.82,4.29v6.43h-1.43V209.75z"/>
<linearGradient id="SVGID_20_" gradientUnits="userSpaceOnUse" x1="249.412" y1="-91.8779" x2="536.6357" y2="-91.8779" gradientTransform="matrix(1 0 0 -1 -115.9994 128)">
	<stop  offset="0" style="stop-color:#F9C924"/>
	<stop  offset="0.3198" style="stop-color:#E4AF18"/>
	<stop  offset="0.6802" style="stop-color:#FFF98C"/>
	<stop  offset="1" style="stop-color:#FFD440"/>
</linearGradient>
<path class="st19" d="M169.88,213.8c2.38,0,4.05,1.19,4.53,2.62v-2.62h1.43v11.68h-1.43v-2.38c-0.72,1.43-2.39,2.86-4.53,2.86
	c-3.1,0-5.49-2.38-5.49-5.96C164.39,216.18,166.78,213.8,169.88,213.8z M170.36,215.23c-2.39,0-4.29,1.67-4.29,4.77
	c0,2.86,1.91,4.77,4.29,4.77c2.39,0,4.3-1.91,4.3-4.77C174.65,217.14,172.74,215.23,170.36,215.23z"/>
<linearGradient id="SVGID_21_" gradientUnits="userSpaceOnUse" x1="249.412" y1="-90.3287" x2="536.6342" y2="-90.3287" gradientTransform="matrix(1 0 0 -1 -115.9994 128)">
	<stop  offset="0" style="stop-color:#F9C924"/>
	<stop  offset="0.3198" style="stop-color:#E4AF18"/>
	<stop  offset="0.6802" style="stop-color:#FFF98C"/>
	<stop  offset="1" style="stop-color:#FFD440"/>
</linearGradient>
<path class="st20" d="M179.9,215.23h-1.67v-1.19h1.67v-2.86h1.43v2.86h3.34v1.19h-3.1v7.15c0,1.43,0.48,1.91,1.91,1.91h1.19v1.19
	H183c-2.15,0-3.1-0.71-3.1-3.1V215.23z"/>
<linearGradient id="SVGID_22_" gradientUnits="userSpaceOnUse" x1="249.4125" y1="-91.9971" x2="536.6342" y2="-91.9971" gradientTransform="matrix(1 0 0 -1 -115.9994 128)">
	<stop  offset="0" style="stop-color:#F9C924"/>
	<stop  offset="0.3198" style="stop-color:#E4AF18"/>
	<stop  offset="0.6802" style="stop-color:#FFF98C"/>
	<stop  offset="1" style="stop-color:#FFD440"/>
</linearGradient>
<path class="st21" d="M192.3,225.96c-3.34,0-5.73-2.38-5.73-5.96c0-3.81,2.39-5.96,5.73-5.96s5.49,2.38,5.49,5.48
	c0,0.48,0,0.71,0,1.19h-9.78c0.24,2.62,2.15,4.29,4.3,4.29c1.91,0,3.34-0.95,3.82-2.62h1.67
	C197.08,224.29,195.17,225.96,192.3,225.96z M188.01,219.28h8.11c0-2.62-1.91-4.05-4.05-4.05
	C189.92,215.23,188.25,216.42,188.01,219.28z"/>
<linearGradient id="SVGID_23_" gradientUnits="userSpaceOnUse" x1="249.4122" y1="-94.6186" x2="536.6342" y2="-94.6186" gradientTransform="matrix(1 0 0 -1 -115.9994 128)">
	<stop  offset="0" style="stop-color:#F9C924"/>
	<stop  offset="0.3198" style="stop-color:#E4AF18"/>
	<stop  offset="0.6802" style="stop-color:#FFF98C"/>
	<stop  offset="1" style="stop-color:#FFD440"/>
</linearGradient>
<path class="st22" d="M208.53,214.04h1.43l-6.92,17.16h-1.67l2.38-5.48l-4.77-11.68h1.67l4.06,10.01L208.53,214.04z"/>
<linearGradient id="SVGID_24_" gradientUnits="userSpaceOnUse" x1="249.4125" y1="-89.6139" x2="536.6342" y2="-89.6139" gradientTransform="matrix(1 0 0 -1 -115.9994 128)">
	<stop  offset="0" style="stop-color:#F9C924"/>
	<stop  offset="0.3198" style="stop-color:#E4AF18"/>
	<stop  offset="0.6802" style="stop-color:#FFF98C"/>
	<stop  offset="1" style="stop-color:#FFD440"/>
</linearGradient>
<path class="st23" d="M218.07,209.75h1.43v9.29l4.77-5.24h2.15l-5.49,5.72l5.49,5.96h-2.15l-4.77-5.24v5.24h-1.43V209.75z"/>
<linearGradient id="SVGID_25_" gradientUnits="userSpaceOnUse" x1="249.4117" y1="-89.6139" x2="536.6357" y2="-89.6139" gradientTransform="matrix(1 0 0 -1 -115.9994 128)">
	<stop  offset="0" style="stop-color:#F9C924"/>
	<stop  offset="0.3198" style="stop-color:#E4AF18"/>
	<stop  offset="0.6802" style="stop-color:#FFF98C"/>
	<stop  offset="1" style="stop-color:#FFD440"/>
</linearGradient>
<path class="st24" d="M227.85,210.7c0-0.71,0.48-1.19,1.19-1.19c0.72,0,1.19,0.48,1.19,1.19s-0.48,1.19-1.19,1.19
	C228.57,211.89,227.85,211.42,227.85,210.7z M228.33,214.04h1.43v11.68h-1.43V214.04z"/>
<linearGradient id="SVGID_26_" gradientUnits="userSpaceOnUse" x1="249.4288" y1="-96.5251" x2="536.6035" y2="-96.5251" gradientTransform="matrix(1 0 0 -1 -115.9994 128)">
	<stop  offset="0" style="stop-color:#F9C924"/>
	<stop  offset="0.3198" style="stop-color:#E4AF18"/>
	<stop  offset="0.6802" style="stop-color:#FFF98C"/>
	<stop  offset="1" style="stop-color:#FFD440"/>
</linearGradient>
<path class="st25" d="M233.57,225.72c-0.71,0-1.19-0.48-1.19-1.19c0-0.71,0.48-1.19,1.19-1.19c0.72,0,0.96,0.48,0.96,1.19
	C234.53,225.24,234.05,225.72,233.57,225.72z"/>
<linearGradient id="SVGID_27_" gradientUnits="userSpaceOnUse" x1="249.4293" y1="-96.5251" x2="536.6051" y2="-96.5251" gradientTransform="matrix(1 0 0 -1 -115.9994 128)">
	<stop  offset="0" style="stop-color:#F9C924"/>
	<stop  offset="0.3198" style="stop-color:#E4AF18"/>
	<stop  offset="0.6802" style="stop-color:#FFF98C"/>
	<stop  offset="1" style="stop-color:#FFD440"/>
</linearGradient>
<path class="st26" d="M237.39,225.72c-0.71,0-1.19-0.48-1.19-1.19c0-0.71,0.48-1.19,1.19-1.19c0.72,0,0.96,0.48,0.96,1.19
	C238.35,225.24,237.87,225.72,237.39,225.72z"/>
<linearGradient id="SVGID_28_" gradientUnits="userSpaceOnUse" x1="249.4297" y1="-96.5251" x2="536.6068" y2="-96.5251" gradientTransform="matrix(1 0 0 -1 -115.9994 128)">
	<stop  offset="0" style="stop-color:#F9C924"/>
	<stop  offset="0.3198" style="stop-color:#E4AF18"/>
	<stop  offset="0.6802" style="stop-color:#FFF98C"/>
	<stop  offset="1" style="stop-color:#FFD440"/>
</linearGradient>
<path class="st27" d="M241.21,225.72c-0.72,0-1.19-0.48-1.19-1.19c0-0.71,0.48-1.19,1.19-1.19c0.71,0,0.95,0.48,0.95,1.19
	C242.16,225.24,241.92,225.72,241.21,225.72z"/>
<linearGradient id="SVGID_29_" gradientUnits="userSpaceOnUse" x1="249.412" y1="-90.0907" x2="536.6342" y2="-90.0907" gradientTransform="matrix(1 0 0 -1 -115.9994 128)">
	<stop  offset="0" style="stop-color:#F9C924"/>
	<stop  offset="0.3198" style="stop-color:#E4AF18"/>
	<stop  offset="0.6802" style="stop-color:#FFF98C"/>
	<stop  offset="1" style="stop-color:#FFD440"/>
</linearGradient>
<path class="st28" d="M257.43,210.46c3.34,0,5.73,1.67,6.92,4.53h-1.67c-0.95-1.91-2.62-3.34-5.25-3.34c-3.34,0-5.72,2.38-5.72,6.43
	c0,3.81,2.62,6.2,5.72,6.2c2.63,0,4.3-1.19,5.25-3.1h1.67c-0.95,2.86-3.58,4.53-6.92,4.53c-4.05,0-7.39-3.1-7.39-7.63
	C250.04,213.8,253.38,210.46,257.43,210.46z"/>
<linearGradient id="SVGID_30_" gradientUnits="userSpaceOnUse" x1="249.4123" y1="-89.8522" x2="536.6357" y2="-89.8522" gradientTransform="matrix(1 0 0 -1 -115.9994 128)">
	<stop  offset="0" style="stop-color:#F9C924"/>
	<stop  offset="0.3198" style="stop-color:#E4AF18"/>
	<stop  offset="0.6802" style="stop-color:#FFF98C"/>
	<stop  offset="1" style="stop-color:#FFD440"/>
</linearGradient>
<path class="st29" d="M267.21,209.75h1.43v6.2c0.71-1.43,2.38-2.14,4.05-2.14c2.62,0,4.77,1.67,4.77,5v6.91h-1.43v-6.67
	c0-2.62-1.43-3.81-3.58-3.81c-2.15,0-3.82,1.43-3.82,4.29v6.43h-1.43V209.75z"/>
<linearGradient id="SVGID_31_" gradientUnits="userSpaceOnUse" x1="249.413" y1="-91.9971" x2="536.6342" y2="-91.9971" gradientTransform="matrix(1 0 0 -1 -115.9994 128)">
	<stop  offset="0" style="stop-color:#F9C924"/>
	<stop  offset="0.3198" style="stop-color:#E4AF18"/>
	<stop  offset="0.6802" style="stop-color:#FFF98C"/>
	<stop  offset="1" style="stop-color:#FFD440"/>
</linearGradient>
<path class="st30" d="M285.82,225.96c-3.34,0-5.73-2.38-5.73-5.96c0-3.81,2.39-5.96,5.73-5.96c3.34,0,5.49,2.38,5.49,5.48
	c0,0.48,0,0.71,0,1.19h-9.78c0.24,2.62,2.15,4.29,4.3,4.29c1.91,0,3.34-0.95,3.82-2.62h1.67
	C290.83,224.29,288.92,225.96,285.82,225.96z M281.76,219.28h8.11c0-2.62-1.91-4.05-4.05-4.05
	C283.67,215.23,281.76,216.42,281.76,219.28z"/>
<linearGradient id="SVGID_32_" gradientUnits="userSpaceOnUse" x1="249.4125" y1="-91.9971" x2="536.6357" y2="-91.9971" gradientTransform="matrix(1 0 0 -1 -115.9994 128)">
	<stop  offset="0" style="stop-color:#F9C924"/>
	<stop  offset="0.3198" style="stop-color:#E4AF18"/>
	<stop  offset="0.6802" style="stop-color:#FFF98C"/>
	<stop  offset="1" style="stop-color:#FFD440"/>
</linearGradient>
<path class="st31" d="M299.18,225.96c-3.34,0-5.73-2.38-5.73-5.96c0-3.81,2.39-5.96,5.73-5.96c3.34,0,5.49,2.38,5.49,5.48
	c0,0.48,0,0.71,0,1.19h-9.78c0.24,2.62,2.15,4.29,4.3,4.29c1.91,0,3.34-0.95,3.82-2.62h1.67
	C304.19,224.29,302.28,225.96,299.18,225.96z M295.12,219.28h8.11c0-2.62-1.91-4.05-4.05-4.05
	C297.03,215.23,295.12,216.42,295.12,219.28z"/>
<linearGradient id="SVGID_33_" gradientUnits="userSpaceOnUse" x1="249.4125" y1="-89.6139" x2="536.6342" y2="-89.6139" gradientTransform="matrix(1 0 0 -1 -115.9994 128)">
	<stop  offset="0" style="stop-color:#F9C924"/>
	<stop  offset="0.3198" style="stop-color:#E4AF18"/>
	<stop  offset="0.6802" style="stop-color:#FFF98C"/>
	<stop  offset="1" style="stop-color:#FFD440"/>
</linearGradient>
<path class="st32" d="M307.53,209.75h1.43v9.29l4.77-5.24h2.15l-5.49,5.72l5.49,5.96h-2.15l-4.77-5.24v5.24h-1.43V209.75z"/>
<linearGradient id="SVGID_34_" gradientUnits="userSpaceOnUse" x1="249.412" y1="-89.8522" x2="536.6342" y2="-89.8522" gradientTransform="matrix(1 0 0 -1 -115.9994 128)">
	<stop  offset="0" style="stop-color:#F9C924"/>
	<stop  offset="0.3198" style="stop-color:#E4AF18"/>
	<stop  offset="0.6802" style="stop-color:#FFF98C"/>
	<stop  offset="1" style="stop-color:#FFD440"/>
</linearGradient>
<path class="st33" d="M317.79,209.75h1.43v6.2c0.72-1.43,2.39-2.14,4.06-2.14c2.62,0,4.77,1.67,4.77,5v6.91h-1.43v-6.67
	c0-2.62-1.43-3.81-3.58-3.81s-3.82,1.43-3.82,4.29v6.43h-1.43V209.75z"/>
<linearGradient id="SVGID_35_" gradientUnits="userSpaceOnUse" x1="249.412" y1="-91.9971" x2="536.6342" y2="-91.9971" gradientTransform="matrix(1 0 0 -1 -115.9994 128)">
	<stop  offset="0" style="stop-color:#F9C924"/>
	<stop  offset="0.3198" style="stop-color:#E4AF18"/>
	<stop  offset="0.6802" style="stop-color:#FFF98C"/>
	<stop  offset="1" style="stop-color:#FFD440"/>
</linearGradient>
<path class="st34" d="M354.29,219.04c0-2.62-1.43-3.81-3.34-3.81c-2.15,0-3.58,1.43-3.58,4.29v6.43h-1.43v-6.67
	c0-2.62-1.43-3.81-3.34-3.81c-2.15,0-3.58,1.43-3.58,4.29v6.43h-1.67v-11.68h1.43v1.43c0.72-1.43,2.15-2.14,3.82-2.14
	c1.91,0,3.58,0.95,4.29,2.86c0.72-1.91,2.38-2.86,4.29-2.86c2.63,0,4.53,1.67,4.53,5v6.91h-1.43V219.04z"/>
<linearGradient id="SVGID_36_" gradientUnits="userSpaceOnUse" x1="249.4126" y1="-91.8779" x2="536.6342" y2="-91.8779" gradientTransform="matrix(1 0 0 -1 -115.9994 128)">
	<stop  offset="0" style="stop-color:#F9C924"/>
	<stop  offset="0.3198" style="stop-color:#E4AF18"/>
	<stop  offset="0.6802" style="stop-color:#FFF98C"/>
	<stop  offset="1" style="stop-color:#FFD440"/>
</linearGradient>
<path class="st35" d="M364.07,213.8c2.39,0,4.06,1.19,4.53,2.62v-2.62h1.43v11.68h-1.43v-2.38c-0.71,1.43-2.38,2.86-4.53,2.86
	c-3.1,0-5.49-2.38-5.49-5.96C358.34,216.18,360.73,213.8,364.07,213.8z M364.31,215.23c-2.38,0-4.29,1.67-4.29,4.77
	c0,2.86,1.91,4.77,4.29,4.77c2.38,0,4.29-1.91,4.29-4.77C368.6,217.14,366.69,215.23,364.31,215.23z"/>
<linearGradient id="SVGID_37_" gradientUnits="userSpaceOnUse" x1="249.4123" y1="-91.8779" x2="536.6342" y2="-91.8779" gradientTransform="matrix(1 0 0 -1 -115.9994 128)">
	<stop  offset="0" style="stop-color:#F9C924"/>
	<stop  offset="0.3198" style="stop-color:#E4AF18"/>
	<stop  offset="0.6802" style="stop-color:#FFF98C"/>
	<stop  offset="1" style="stop-color:#FFD440"/>
</linearGradient>
<path class="st36" d="M378.62,213.8c2.39,0,4.06,1.19,4.53,2.62v-2.62h1.43v11.68h-1.43v-2.38c-0.71,1.43-2.38,2.86-4.53,2.86
	c-3.1,0-5.49-2.38-5.49-5.96C372.89,216.18,375.28,213.8,378.62,213.8z M378.86,215.23c-2.38,0-4.29,1.67-4.29,4.77
	c0,2.86,1.91,4.77,4.29,4.77c2.39,0,4.29-1.91,4.29-4.77C383.15,217.14,381.24,215.23,378.86,215.23z"/>
<linearGradient id="SVGID_38_" gradientUnits="userSpaceOnUse" x1="249.4122" y1="-91.7587" x2="536.6342" y2="-91.7587" gradientTransform="matrix(1 0 0 -1 -115.9994 128)">
	<stop  offset="0" style="stop-color:#F9C924"/>
	<stop  offset="0.3198" style="stop-color:#E4AF18"/>
	<stop  offset="0.6802" style="stop-color:#FFF98C"/>
	<stop  offset="1" style="stop-color:#FFD440"/>
</linearGradient>
<path class="st37" d="M389.59,225.72h-1.43v-11.68h1.43v2.14c0.72-1.43,1.91-2.38,4.05-2.38v1.67h-0.48c-1.91,0-3.58,0.95-3.58,3.81
	V225.72z"/>
<linearGradient id="SVGID_39_" gradientUnits="userSpaceOnUse" x1="249.4122" y1="-91.8779" x2="536.6342" y2="-91.8779" gradientTransform="matrix(1 0 0 -1 -115.9994 128)">
	<stop  offset="0" style="stop-color:#F9C924"/>
	<stop  offset="0.3198" style="stop-color:#E4AF18"/>
	<stop  offset="0.6802" style="stop-color:#FFF98C"/>
	<stop  offset="1" style="stop-color:#FFD440"/>
</linearGradient>
<path class="st38" d="M404.62,219.04c0-2.62-1.43-3.81-3.58-3.81c-2.15,0-3.82,1.43-3.82,4.29v6.43h-1.43v-11.68h1.43v1.67
	c0.72-1.43,2.15-2.14,4.06-2.14c2.62,0,4.77,1.67,4.77,5v6.91h-1.43V219.04z"/>
<linearGradient id="SVGID_40_" gradientUnits="userSpaceOnUse" x1="249.4123" y1="-91.8779" x2="536.6357" y2="-91.8779" gradientTransform="matrix(1 0 0 -1 -115.9994 128)">
	<stop  offset="0" style="stop-color:#F9C924"/>
	<stop  offset="0.3198" style="stop-color:#E4AF18"/>
	<stop  offset="0.6802" style="stop-color:#FFF98C"/>
	<stop  offset="1" style="stop-color:#FFD440"/>
</linearGradient>
<path class="st39" d="M414.4,213.8c2.38,0,4.05,1.19,4.53,2.62v-2.62h1.43v11.68h-1.43v-2.38c-0.72,1.43-2.39,2.86-4.53,2.86
	c-3.1,0-5.49-2.38-5.49-5.96C408.68,216.18,411.06,213.8,414.4,213.8z M414.64,215.23c-2.39,0-4.3,1.67-4.3,4.77
	c0,2.86,1.91,4.77,4.3,4.77c2.38,0,4.29-1.91,4.29-4.77C418.94,217.14,417.03,215.23,414.64,215.23z"/>
</svg>
